<?xml version="1.0" encoding="UTF-8"?>
<!DOCTYPE svg PUBLIC "-//W3C//DTD SVG 1.1//EN" "http://www.w3.org/Graphics/SVG/1.1/DTD/svg11.dtd">
<svg xmlns="http://www.w3.org/2000/svg" version="1.1" width="500px" height="500px" style="shape-rendering:geometricPrecision; text-rendering:geometricPrecision; image-rendering:optimizeQuality; fill-rule:evenodd; clip-rule:evenodd" xmlns:xlink="http://www.w3.org/1999/xlink">
<g><path style="opacity:1" fill="#020100" d="M -0.5,-0.5 C 166.167,-0.5 332.833,-0.5 499.5,-0.5C 499.5,166.167 499.5,332.833 499.5,499.5C 332.833,499.5 166.167,499.5 -0.5,499.5C -0.5,332.833 -0.5,166.167 -0.5,-0.5 Z"/></g>
<g><path style="opacity:1" fill="#e6af06" d="M 253.5,10.5 C 255.641,9.8367 257.975,9.50337 260.5,9.5C 288.186,10.9202 314.853,17.0869 340.5,28C 351.666,34.4154 362.666,41.0821 373.5,48C 356.279,40.0608 338.946,32.0608 321.5,24C 298.68,20.2524 276.014,15.7524 253.5,10.5 Z"/></g>
<g><path style="opacity:1" fill="#795c03" d="M 198.5,14.5 C 201.304,13.3622 204.304,13.1955 207.5,14C 205.846,14.6077 204.179,15.1077 202.5,15.5C 201.432,14.5655 200.099,14.2322 198.5,14.5 Z"/></g>
<g><path style="opacity:1" fill="#f2b706" d="M 198.5,14.5 C 200.099,14.2322 201.432,14.5655 202.5,15.5C 198.777,16.2967 195.11,17.2967 191.5,18.5C 188.868,19.3267 186.202,20.16 183.5,21C 186.72,21.3202 189.72,20.8202 192.5,19.5C 206.593,18.1899 220.593,16.5232 234.5,14.5C 237.482,14.9629 240.482,15.2962 243.5,15.5C 256.196,15.8963 268.862,16.7296 281.5,18C 284.309,19.0934 286.976,20.2601 289.5,21.5C 288.5,21.5 287.5,21.5 286.5,21.5C 276.555,21.513 266.555,21.1797 256.5,20.5C 252.702,19.5166 248.702,19.1832 244.5,19.5C 238.158,19.3338 231.825,19.5005 225.5,20C 212.519,22.6626 199.519,25.1626 186.5,27.5C 177.817,30.8958 169.151,34.3958 160.5,38C 165.854,36.8381 171.187,35.3381 176.5,33.5C 157.233,42.0317 138.566,51.6983 120.5,62.5C 115.527,65.3214 110.527,68.1547 105.5,71C 95.5789,81.7474 86.2456,92.9141 77.5,104.5C 73.5,108.833 69.5,113.167 65.5,117.5C 67.0209,114.534 68.1875,111.534 69,108.5C 66.6667,111.5 64.3333,114.5 62,117.5C 57.5963,126.876 53.0963,136.21 48.5,145.5C 48.8457,146.696 49.3457,146.696 50,145.5C 52.3545,140.113 55.1878,135.113 58.5,130.5C 49.6022,148.26 41.9356,166.26 35.5,184.5C 34.596,183.791 34.2627,182.791 34.5,181.5C 32.7475,184.146 31.7475,187.146 31.5,190.5C 27.2431,208.873 23.5765,227.373 20.5,246C 23.7195,266.151 26.8862,286.318 30,306.5C 42.0882,331.698 55.9215,355.698 71.5,378.5C 69.8333,377.167 68.1667,375.833 66.5,374.5C 65.6348,374.436 64.6348,374.103 63.5,373.5C 63.2624,371.596 62.2624,370.262 60.5,369.5C 60.2624,367.596 59.2624,366.262 57.5,365.5C 55.4271,361.692 53.0938,358.026 50.5,354.5C 43.6788,342.194 36.8455,329.86 30,317.5C 26.3333,307.833 22.6667,298.167 19,288.5C 18.7408,290.991 18.9075,293.491 19.5,296C 19.5463,297.728 19.0463,299.228 18,300.5C 10.7308,283.926 8.39745,266.593 11,248.5C 11.274,238.139 11.9406,227.805 13,217.5C 17.6705,199.484 22.3372,181.484 27,163.5C 32.1959,150.913 37.1959,138.246 42,125.5C 50.1811,112.316 59.5144,99.9823 70,88.5C 70.1667,88.8333 70.3333,89.1667 70.5,89.5C 68.0898,92.3525 66.2564,95.3525 65,98.5C 75.285,86.7598 85.4517,74.9265 95.5,63C 99.0901,61.4698 102.757,60.1365 106.5,59C 120.833,50 135.167,41 149.5,32C 162.617,26.6084 175.617,20.9417 188.5,15C 191.817,14.5017 195.15,14.335 198.5,14.5 Z"/></g>
<g><path style="opacity:1" fill="#725703" d="M 234.5,14.5 C 237.976,13.3567 241.642,13.1901 245.5,14C 244.584,14.2784 243.918,14.7784 243.5,15.5C 240.482,15.2962 237.482,14.9629 234.5,14.5 Z"/></g>
<g><path style="opacity:1" fill="#765a05" d="M 191.5,18.5 C 191.5,19.1667 191.833,19.5 192.5,19.5C 189.72,20.8202 186.72,21.3202 183.5,21C 186.202,20.16 188.868,19.3267 191.5,18.5 Z"/></g>
<g><path style="opacity:1" fill="#ac8304" d="M 286.5,21.5 C 287.5,21.5 288.5,21.5 289.5,21.5C 292.947,21.8143 296.28,22.6476 299.5,24C 294.946,23.9411 290.613,23.1078 286.5,21.5 Z"/></g>
<g><path style="opacity:1" fill="#765a04" d="M 244.5,19.5 C 248.702,19.1832 252.702,19.5166 256.5,20.5C 249.562,22.4847 242.562,24.318 235.5,26C 239.025,26.1787 242.359,26.6787 245.5,27.5C 239.311,27.0349 233.311,27.7015 227.5,29.5C 227.265,28.9033 226.765,28.5699 226,28.5C 221.575,29.8982 217.075,30.8982 212.5,31.5C 224.582,27.5589 236.915,24.0589 249.5,21C 247.618,20.8019 245.952,20.3019 244.5,19.5 Z"/></g>
<g><path style="opacity:1" fill="#fabd07" d="M 245.5,27.5 C 266.872,27.9353 288.206,29.102 309.5,31C 328.739,39.4549 348.073,47.6215 367.5,55.5C 368.262,57.2624 369.596,58.2624 371.5,58.5C 372.262,60.2624 373.596,61.2624 375.5,61.5C 376.585,63.5869 378.251,64.9202 380.5,65.5C 381.585,67.5869 383.251,68.9202 385.5,69.5C 385.611,70.1174 385.944,70.6174 386.5,71C 385.044,71.4226 384.544,72.2559 385,73.5C 391.239,76.9071 396.739,81.2404 401.5,86.5C 400.833,86.5 400.5,86.8333 400.5,87.5C 399.732,88.2625 399.232,89.2625 399,90.5C 394.114,85.6461 388.947,81.1461 383.5,77C 366.833,67.6667 350.167,58.3333 333.5,49C 322.582,46.02 311.582,43.52 300.5,41.5C 290.816,38.3229 280.816,35.9896 270.5,34.5C 268.708,34.366 267.042,34.6993 265.5,35.5C 259.484,36.1354 253.484,36.9687 247.5,38C 251.114,38.9358 254.78,39.4358 258.5,39.5C 258.167,40.1667 257.833,40.8333 257.5,41.5C 250.167,41.5 242.833,41.5 235.5,41.5C 235.5,42.8333 235.5,44.1667 235.5,45.5C 223.427,47.8517 211.427,50.5184 199.5,53.5C 197.897,53.3118 196.563,53.8118 195.5,55C 198.367,55.8007 201.034,55.6341 203.5,54.5C 206.947,53.4288 210.447,52.4288 214,51.5C 215,51.8333 216,52.1667 217,52.5C 223.267,50.5636 229.434,48.5636 235.5,46.5C 235.5,62.5 235.5,78.5 235.5,94.5C 241.842,94.6662 248.175,94.4995 254.5,94C 256.751,93.2525 258.084,91.7525 258.5,89.5C 259.496,76.0102 259.829,62.3435 259.5,48.5C 262.167,48.5 264.833,48.5 267.5,48.5C 264.713,47.5233 261.713,47.19 258.5,47.5C 258.703,45.6096 258.037,44.1096 256.5,43C 257.094,42.5357 257.761,42.369 258.5,42.5C 260.099,42.7678 261.432,42.4345 262.5,41.5C 263.5,41.5 264.5,41.5 265.5,41.5C 267.36,40.9285 269.027,40.9285 270.5,41.5C 278.352,41.5433 285.686,43.3766 292.5,47C 290.714,47.7845 289.214,48.9512 288,50.5C 283.973,66.1417 280.139,81.8084 276.5,97.5C 282.349,98.0457 288.016,99.379 293.5,101.5C 294.167,101.167 294.833,100.833 295.5,100.5C 296.093,98.6183 296.76,96.7849 297.5,95C 294.317,93.5336 290.984,92.367 287.5,91.5C 286.848,87.069 287.515,82.7356 289.5,78.5C 293.954,76.9293 298.454,75.5959 303,74.5C 303.567,71.8323 304.067,69.1656 304.5,66.5C 300.5,67.1667 296.5,67.8333 292.5,68.5C 293.058,64.208 294.058,60.0413 295.5,56C 299.444,56.479 303.444,56.979 307.5,57.5C 307.132,54.9442 307.966,52.9442 310,51.5C 316.462,53.4076 322.962,55.2409 329.5,57C 334.164,58.345 338.831,58.6783 343.5,58C 348.577,61.4005 353.911,64.4005 359.5,67C 368.161,74.6517 377.161,81.985 386.5,89C 392.549,98.0557 399.716,106.222 408,113.5C 407.043,109.907 406.377,106.24 406,102.5C 409.101,107.702 411.934,113.035 414.5,118.5C 421.133,126.409 427.3,134.743 433,143.5C 436.731,146.893 440.064,150.56 443,154.5C 448.278,167.389 453.278,180.389 458,193.5C 458.667,195.5 458.667,197.5 458,199.5C 456.607,195.714 454.941,192.048 453,188.5C 453.989,194.135 455.156,199.801 456.5,205.5C 456.709,206.922 457.209,208.255 458,209.5C 458.272,206.746 458.772,204.079 459.5,201.5C 459.351,200.448 459.517,199.448 460,198.5C 461.319,200.25 461.819,202.25 461.5,204.5C 461.279,207.097 460.779,207.097 460,204.5C 459.667,207.5 459.333,210.5 459,213.5C 458.667,212.833 458.333,212.167 458,211.5C 457.501,215.821 457.334,220.154 457.5,224.5C 457.709,235.194 457.375,245.86 456.5,256.5C 453.982,274.405 449.649,291.905 443.5,309C 443.667,309.5 443.833,310 444,310.5C 445.667,306.833 447.333,303.167 449,299.5C 449.018,301.797 448.851,304.131 448.5,306.5C 446.722,309.902 445.389,313.569 444.5,317.5C 443.911,319.352 443.244,321.185 442.5,323C 441.216,323.684 440.049,323.517 439,322.5C 433.139,334.886 427.306,347.219 421.5,359.5C 423.605,356.973 425.939,354.64 428.5,352.5C 428.076,355.354 427.076,358.021 425.5,360.5C 425.863,361.183 426.196,361.85 426.5,362.5C 423.743,369.898 424.409,370.232 428.5,363.5C 433.966,359.503 437.633,354.17 439.5,347.5C 439.03,346.537 438.363,346.537 437.5,347.5C 436.538,345.014 435.705,345.014 435,347.5C 434.617,346.944 434.117,346.611 433.5,346.5C 438.18,337.14 442.847,327.807 447.5,318.5C 448.558,317.4 449.392,316.066 450,314.5C 455.122,297.254 459.955,279.92 464.5,262.5C 464.333,261.5 464.167,260.5 464,259.5C 462.595,264.548 461.095,269.548 459.5,274.5C 458.167,276.833 456.833,279.167 455.5,281.5C 455.753,273.398 456.753,265.398 458.5,257.5C 459.313,248.811 460.313,240.145 461.5,231.5C 461.198,228.941 461.532,226.607 462.5,224.5C 463.981,229.012 464.648,233.678 464.5,238.5C 464.335,241.518 464.502,244.518 465,247.5C 465.719,243.855 466.219,240.188 466.5,236.5C 465.538,229.875 466.871,223.875 470.5,218.5C 471.167,219.167 471.833,219.833 472.5,220.5C 474.078,230.578 473.745,240.578 471.5,250.5C 472.772,255.839 472.772,261.172 471.5,266.5C 470.71,265.391 470.21,264.058 470,262.5C 469.436,265.155 468.936,267.821 468.5,270.5C 468.52,271.726 468.853,272.726 469.5,273.5C 469.343,274.873 469.51,276.207 470,277.5C 470.889,276.112 471.389,276.278 471.5,278C 470.206,282.801 469.04,287.634 468,292.5C 463.06,306.487 458.227,320.487 453.5,334.5C 452.609,335.261 451.942,336.261 451.5,337.5C 452.2,337.787 452.867,338.12 453.5,338.5C 452.489,342.207 451.323,345.873 450,349.5C 449.502,347.473 449.669,345.473 450.5,343.5C 450.518,341.627 450.018,341.294 449,342.5C 442.291,352.753 435.457,362.92 428.5,373C 429.549,373.492 430.549,373.326 431.5,372.5C 432.314,374.952 431.814,377.285 430,379.5C 425.63,383.702 421.463,388.036 417.5,392.5C 423.075,388.433 428.241,383.766 433,378.5C 445.078,363.079 457.244,348.413 469.5,334.5C 463.728,345.711 458.228,357.044 453,368.5C 442.5,378.333 432,388.167 421.5,398C 422.167,398.333 422.833,398.667 423.5,399C 421.004,400.666 418.671,402.5 416.5,404.5C 413.751,403.511 411.751,404.511 410.5,407.5C 398.784,415.036 387.451,423.202 376.5,432C 353.135,439.01 330.135,447.01 307.5,456C 292.496,457.141 277.496,458.308 262.5,459.5C 252.502,458.952 242.502,458.452 232.5,458C 240.833,457.667 249.167,457.333 257.5,457C 242.833,455.667 228.166,454.333 213.5,453C 198.229,447.798 182.896,442.798 167.5,438C 152.167,428.667 136.833,419.333 121.5,410C 108.642,398.141 96.1423,385.975 84,373.5C 76.247,361.66 68.247,349.993 60,338.5C 52.8599,322.748 45.5266,307.081 38,291.5C 35.8366,272.869 34.5033,254.203 34,235.5C 36.0185,213.033 40.3519,191.033 47,169.5C 48.7209,162.057 51.5543,155.057 55.5,148.5C 56.325,147.614 57.325,147.281 58.5,147.5C 55.9614,155.782 53.6281,164.115 51.5,172.5C 49.4314,176.209 48.2647,180.209 48,184.5C 49.4098,180.764 50.9098,177.098 52.5,173.5C 56.8378,161.324 61.6712,149.324 67,137.5C 75.3333,125.833 83.6667,114.167 92,102.5C 94.7028,99.6286 97.5361,96.9619 100.5,94.5C 101.263,95.2679 102.263,95.7679 103.5,96C 101.452,97.2259 101.119,98.7259 102.5,100.5C 101.207,102.296 99.7073,103.963 98,105.5C 97.3333,106.167 97.3333,106.833 98,107.5C 103.74,101.658 109.24,95.6576 114.5,89.5C 116.745,88.7081 117.078,87.3747 115.5,85.5C 116.423,86.3029 117.423,86.4696 118.5,86C 121.036,83.295 123.703,80.795 126.5,78.5C 128.911,77.483 130.578,75.8163 131.5,73.5C 133.001,72.2485 134.668,71.2485 136.5,70.5C 136.56,71.0431 136.893,71.3764 137.5,71.5C 140.077,70.0569 142.41,68.3902 144.5,66.5C 147.447,65.0266 150.447,63.5266 153.5,62C 152.833,61.6667 152.167,61.3333 151.5,61C 154.352,59.2917 156.352,57.4583 157.5,55.5C 157.973,54.0937 158.973,53.427 160.5,53.5C 160.56,54.0431 160.893,54.3764 161.5,54.5C 169.065,51.3275 176.399,47.9942 183.5,44.5C 198.426,40.3023 213.093,35.3023 227.5,29.5C 233.311,27.7015 239.311,27.0349 245.5,27.5 Z"/></g>
<g><path style="opacity:1" fill="#0d0800" d="M 227.5,29.5 C 213.093,35.3023 198.426,40.3023 183.5,44.5C 186.167,42.8333 188.833,41.1667 191.5,39.5C 198.677,37.0692 205.677,34.4025 212.5,31.5C 217.075,30.8982 221.575,29.8982 226,28.5C 226.765,28.5699 227.265,28.9033 227.5,29.5 Z"/></g>
<g><path style="opacity:1" fill="#584309" d="M 186.5,27.5 C 187.598,28.397 187.598,29.2303 186.5,30C 183.242,31.4665 179.908,32.6332 176.5,33.5C 171.187,35.3381 165.854,36.8381 160.5,38C 169.151,34.3958 177.817,30.8958 186.5,27.5 Z"/></g>
<g><path style="opacity:1" fill="#9b7505" d="M 212.5,31.5 C 205.677,34.4025 198.677,37.0692 191.5,39.5C 197.695,34.9096 204.695,32.243 212.5,31.5 Z"/></g>
<g><path style="opacity:1" fill="#150f01" d="M 265.5,35.5 C 268.614,36.9558 271.948,38.1225 275.5,39C 271.833,39.3333 268.167,39.6667 264.5,40C 265.056,40.3826 265.389,40.8826 265.5,41.5C 264.5,41.5 263.5,41.5 262.5,41.5C 261.969,40.2046 260.636,39.5379 258.5,39.5C 254.78,39.4358 251.114,38.9358 247.5,38C 253.484,36.9687 259.484,36.1354 265.5,35.5 Z"/></g>
<g><path style="opacity:1" fill="#1f1805" d="M 270.5,34.5 C 280.816,35.9896 290.816,38.3229 300.5,41.5C 290.735,40.4018 281.068,38.5685 271.5,36C 270.944,35.6174 270.611,35.1174 270.5,34.5 Z"/></g>
<g><path style="opacity:1" fill="#d6a205" d="M 168.5,43.5 C 167.85,43.1961 167.183,42.8627 166.5,42.5C 161.28,44.9409 156.28,47.6076 151.5,50.5C 148.594,51.7866 145.594,52.7866 142.5,53.5C 150.772,49.0285 159.105,44.5285 167.5,40C 183.035,37.4765 183.368,38.6432 168.5,43.5 Z"/></g>
<g><path style="opacity:1" fill="#c99905" d="M 270.5,34.5 C 270.611,35.1174 270.944,35.6174 271.5,36C 281.068,38.5685 290.735,40.4018 300.5,41.5C 312.301,45.9348 324.301,50.1015 336.5,54C 317.233,49.8915 298.066,45.0581 279,39.5C 276.004,40.0354 273.171,40.7021 270.5,41.5C 269.027,40.9285 267.36,40.9285 265.5,41.5C 265.389,40.8826 265.056,40.3826 264.5,40C 268.167,39.6667 271.833,39.3333 275.5,39C 271.948,38.1225 268.614,36.9558 265.5,35.5C 267.042,34.6993 268.708,34.366 270.5,34.5 Z"/></g>
<g><path style="opacity:1" fill="#0b0701" d="M 257.5,41.5 C 258.167,41.5 258.5,41.8333 258.5,42.5C 257.761,42.369 257.094,42.5357 256.5,43C 258.037,44.1096 258.703,45.6096 258.5,47.5C 258.5,61.5 258.5,75.5 258.5,89.5C 258.084,91.7525 256.751,93.2525 254.5,94C 248.175,94.4995 241.842,94.6662 235.5,94.5C 235.5,78.5 235.5,62.5 235.5,46.5C 235.5,46.1667 235.5,45.8333 235.5,45.5C 235.5,44.1667 235.5,42.8333 235.5,41.5C 242.833,41.5 250.167,41.5 257.5,41.5 Z"/></g>
<g><path style="opacity:1" fill="#7f6104" d="M 258.5,39.5 C 260.636,39.5379 261.969,40.2046 262.5,41.5C 261.432,42.4345 260.099,42.7678 258.5,42.5C 258.5,41.8333 258.167,41.5 257.5,41.5C 257.833,40.8333 258.167,40.1667 258.5,39.5 Z"/></g>
<g><path style="opacity:1" fill="#221a04" d="M 210.5,42.5 C 212.199,42.3398 213.866,42.5065 215.5,43C 212.911,44.3141 210.244,44.9808 207.5,45C 208.942,44.6232 209.942,43.7899 210.5,42.5 Z"/></g>
<g><path style="opacity:1" fill="#936f03" d="M 168.5,43.5 C 163.023,46.4032 157.357,49.0698 151.5,51.5C 151.5,51.1667 151.5,50.8333 151.5,50.5C 156.28,47.6076 161.28,44.9409 166.5,42.5C 167.183,42.8627 167.85,43.1961 168.5,43.5 Z"/></g>
<g><path style="opacity:1" fill="#705508" d="M 191.5,39.5 C 188.833,41.1667 186.167,42.8333 183.5,44.5C 176.399,47.9942 169.065,51.3275 161.5,54.5C 160.893,54.3764 160.56,54.0431 160.5,53.5C 170.432,48.0725 180.766,43.4058 191.5,39.5 Z"/></g>
<g><path style="opacity:1" fill="#3c2e08" d="M 235.5,45.5 C 235.5,45.8333 235.5,46.1667 235.5,46.5C 229.434,48.5636 223.267,50.5636 217,52.5C 216,52.1667 215,51.8333 214,51.5C 210.447,52.4288 206.947,53.4288 203.5,54.5C 201.901,54.7678 200.568,54.4345 199.5,53.5C 211.427,50.5184 223.427,47.8517 235.5,45.5 Z"/></g>
<g><path style="opacity:1" fill="#947003" d="M 267.5,48.5 C 271.897,48.4246 276.23,48.9246 280.5,50C 275.957,50.372 271.623,49.872 267.5,48.5 Z"/></g>
<g><path style="opacity:1" fill="#fcbf06" d="M 244.5,49.5 C 246.5,49.5 248.5,49.5 250.5,49.5C 250.5,61.8333 250.5,74.1667 250.5,86.5C 248.5,86.5 246.5,86.5 244.5,86.5C 244.5,74.1667 244.5,61.8333 244.5,49.5 Z"/></g>
<g><path style="opacity:1" fill="#382b05" d="M 151.5,50.5 C 151.5,50.8333 151.5,51.1667 151.5,51.5C 148.259,53.1207 144.925,54.7874 141.5,56.5C 137.786,55.0992 138.12,54.0992 142.5,53.5C 145.594,52.7866 148.594,51.7866 151.5,50.5 Z"/></g>
<g><path style="opacity:1" fill="#8f6c04" d="M 199.5,53.5 C 200.568,54.4345 201.901,54.7678 203.5,54.5C 201.034,55.6341 198.367,55.8007 195.5,55C 196.563,53.8118 197.897,53.3118 199.5,53.5 Z"/></g>
<g><path style="opacity:1" fill="#4b3906" d="M 371.5,56.5 C 370.494,56.9377 370.494,57.6043 371.5,58.5C 369.596,58.2624 368.262,57.2624 367.5,55.5C 368.962,54.5291 370.295,54.8624 371.5,56.5 Z"/></g>
<g><path style="opacity:1" fill="#e1aa06" d="M 151.5,58.5 C 149.087,60.8872 146.42,63.0539 143.5,65C 144.056,65.3826 144.389,65.8826 144.5,66.5C 142.41,68.3902 140.077,70.0569 137.5,71.5C 136.893,71.3764 136.56,71.0431 136.5,70.5C 135.279,69.5354 133.946,69.702 132.5,71C 130.382,72.0491 128.716,73.5491 127.5,75.5C 125.983,75.5106 124.816,76.1772 124,77.5C 123.667,77.1667 123.333,76.8333 123,76.5C 120.809,77.8334 118.976,79.5 117.5,81.5C 114.891,82.4431 112.891,84.1097 111.5,86.5C 110.833,86.5 110.167,86.5 109.5,86.5C 120.051,74.2801 132.385,64.2801 146.5,56.5C 146.835,58.0026 146.835,59.336 146.5,60.5C 148.075,59.5435 149.742,58.8769 151.5,58.5 Z"/></g>
<g><path style="opacity:1" fill="#554008" d="M 168.5,60.5 C 166.05,60.298 163.717,60.6314 161.5,61.5C 161.082,60.7784 160.416,60.2784 159.5,60C 162.719,58.0455 166.053,56.7121 169.5,56C 168.449,57.3848 167.116,58.3848 165.5,59C 166.737,59.2321 167.737,59.7321 168.5,60.5 Z"/></g>
<g><path style="opacity:1" fill="#463505" d="M 371.5,58.5 C 373.404,58.7376 374.738,59.7376 375.5,61.5C 373.596,61.2624 372.262,60.2624 371.5,58.5 Z"/></g>
<g><path style="opacity:1" fill="#ebb306" d="M 371.5,56.5 C 377.14,59.3201 382.807,62.1534 388.5,65C 393.71,70.7056 398.71,76.539 403.5,82.5C 401.246,81.5849 399.246,80.2516 397.5,78.5C 393.482,75.4756 389.482,72.4756 385.5,69.5C 384.415,67.4131 382.749,66.0798 380.5,65.5C 379.415,63.4131 377.749,62.0798 375.5,61.5C 374.738,59.7376 373.404,58.7376 371.5,58.5C 370.494,57.6043 370.494,56.9377 371.5,56.5 Z"/></g>
<g><path style="opacity:1" fill="#070400" d="M 168.5,60.5 C 169.239,60.369 169.906,60.5357 170.5,61C 172.178,63.9138 174.178,66.4138 176.5,68.5C 176.389,69.1174 176.056,69.6174 175.5,70C 179.798,78.384 184.631,87.5507 190,97.5C 191.227,101.591 190.394,105.091 187.5,108C 182.588,110.372 177.755,112.872 173,115.5C 164.775,100.218 156.942,84.7178 149.5,69C 152.934,65.773 156.934,63.273 161.5,61.5C 163.717,60.6314 166.05,60.298 168.5,60.5 Z"/></g>
<g><path style="opacity:1" fill="#443407" d="M 157.5,55.5 C 156.352,57.4583 154.352,59.2917 151.5,61C 152.167,61.3333 152.833,61.6667 153.5,62C 150.447,63.5266 147.447,65.0266 144.5,66.5C 144.389,65.8826 144.056,65.3826 143.5,65C 146.42,63.0539 149.087,60.8872 151.5,58.5C 153.181,56.9925 155.181,55.9925 157.5,55.5 Z"/></g>
<g><path style="opacity:1" fill="#896803" d="M 187.5,62.5 C 186.07,63.5375 184.403,64.2041 182.5,64.5C 183.509,61.8341 185.176,61.1674 187.5,62.5 Z"/></g>
<g><path style="opacity:1" fill="#221a05" d="M 176.5,68.5 C 178.147,66.6736 180.147,65.3403 182.5,64.5C 184.403,64.2041 186.07,63.5375 187.5,62.5C 190.827,61.3172 194.161,60.4838 197.5,60C 190.584,63.1362 183.584,65.9696 176.5,68.5 Z"/></g>
<g><path style="opacity:1" fill="#523e07" d="M 375.5,61.5 C 377.749,62.0798 379.415,63.4131 380.5,65.5C 378.251,64.9202 376.585,63.5869 375.5,61.5 Z"/></g>
<g><path style="opacity:1" fill="#e1ab06" d="M 121.5,64.5 C 123.233,65.0076 123.566,65.841 122.5,67C 115.472,71.5106 108.472,76.0106 101.5,80.5C 101.062,80.5654 100.728,80.3988 100.5,80C 106.059,72.8865 113.059,67.7199 121.5,64.5 Z"/></g>
<g><path style="opacity:1" fill="#594406" d="M 380.5,65.5 C 382.749,66.0798 384.415,67.4131 385.5,69.5C 383.251,68.9202 381.585,67.5869 380.5,65.5 Z"/></g>
<g><path style="opacity:1" fill="#1b1402" d="M 136.5,70.5 C 134.668,71.2485 133.001,72.2485 131.5,73.5C 130.395,74.6005 129.062,75.2671 127.5,75.5C 128.716,73.5491 130.382,72.0491 132.5,71C 133.946,69.702 135.279,69.5354 136.5,70.5 Z"/></g>
<g><path style="opacity:1" fill="#eeb506" d="M 163.5,68.5 C 166.685,68.7224 167.685,70.2224 166.5,73C 168.301,73.3173 168.634,73.984 167.5,75C 168.416,75.3742 169.25,75.8742 170,76.5C 174.039,84.7447 178.206,92.9114 182.5,101C 180.751,102.292 178.918,103.458 177,104.5C 171.094,93.8536 165.594,83.0203 160.5,72C 161.544,70.8261 162.544,69.6594 163.5,68.5 Z"/></g>
<g><path style="opacity:1" fill="#251c04" d="M 385.5,69.5 C 389.482,72.4756 393.482,75.4756 397.5,78.5C 398.316,81.1073 399.983,83.1073 402.5,84.5C 403.29,85.7942 404.29,86.9609 405.5,88C 403.934,88.2997 402.601,87.7997 401.5,86.5C 396.739,81.2404 391.239,76.9071 385,73.5C 384.544,72.2559 385.044,71.4226 386.5,71C 385.944,70.6174 385.611,70.1174 385.5,69.5 Z"/></g>
<g><path style="opacity:1" fill="#7a5c02" d="M 131.5,73.5 C 130.578,75.8163 128.911,77.483 126.5,78.5C 126.557,77.391 126.89,76.391 127.5,75.5C 129.062,75.2671 130.395,74.6005 131.5,73.5 Z"/></g>
<g><path style="opacity:1" fill="#211904" d="M 120.5,62.5 C 120.833,63.1667 121.167,63.8333 121.5,64.5C 113.059,67.7199 106.059,72.8865 100.5,80C 100.728,80.3988 101.062,80.5654 101.5,80.5C 94.374,88.7959 87.0407,96.9625 79.5,105C 78.5632,105.692 77.8966,105.525 77.5,104.5C 86.2456,92.9141 95.5789,81.7474 105.5,71C 110.527,68.1547 115.527,65.3214 120.5,62.5 Z"/></g>
<g><path style="opacity:1" fill="#7d5f03" d="M 397.5,78.5 C 399.246,80.2516 401.246,81.5849 403.5,82.5C 405.191,83.8637 406.858,85.197 408.5,86.5C 407.883,86.6107 407.383,86.944 407,87.5C 405.871,85.8588 404.371,84.8588 402.5,84.5C 399.983,83.1073 398.316,81.1073 397.5,78.5 Z"/></g>
<g><path style="opacity:1" fill="#332706" d="M 127.5,75.5 C 126.89,76.391 126.557,77.391 126.5,78.5C 123.703,80.795 121.036,83.295 118.5,86C 117.423,86.4696 116.423,86.3029 115.5,85.5C 116.936,84.5714 118.269,83.4048 119.5,82C 118.906,81.5357 118.239,81.369 117.5,81.5C 118.976,79.5 120.809,77.8334 123,76.5C 123.333,76.8333 123.667,77.1667 124,77.5C 124.816,76.1772 125.983,75.5106 127.5,75.5 Z"/></g>
<g><path style="opacity:1" fill="#d5a105" d="M 403.5,74.5 C 414.819,81.3035 422.986,90.6368 428,102.5C 419.229,93.5715 411.063,84.2381 403.5,74.5 Z"/></g>
<g><path style="opacity:1" fill="#705503" d="M 258.5,47.5 C 261.713,47.19 264.713,47.5233 267.5,48.5C 264.833,48.5 262.167,48.5 259.5,48.5C 259.829,62.3435 259.496,76.0102 258.5,89.5C 258.5,75.5 258.5,61.5 258.5,47.5 Z"/></g>
<g><path style="opacity:1" fill="#090600" d="M 370.5,110.5 C 369.508,110.328 368.842,110.662 368.5,111.5C 367.423,112.018 366.256,112.352 365,112.5C 361.122,111.707 357.288,111.207 353.5,111C 348.99,116.342 344.323,121.508 339.5,126.5C 337.5,125.167 335.833,123.5 334.5,121.5C 344.237,108.539 354.57,96.0392 365.5,84C 368.303,83.245 370.97,83.5783 373.5,85C 376.542,87.8424 379.542,90.6757 382.5,93.5C 381.577,95.9242 380.077,97.9242 378,99.5C 375.075,97.2861 372.241,94.9528 369.5,92.5C 366.478,94.6881 363.978,97.3548 362,100.5C 361.493,101.996 361.993,103.163 363.5,104C 366.559,104.645 369.559,105.478 372.5,106.5C 371.37,107.622 370.703,108.956 370.5,110.5 Z"/></g>
<g><path style="opacity:1" fill="#8e6b06" d="M 117.5,81.5 C 118.239,81.369 118.906,81.5357 119.5,82C 118.269,83.4048 116.936,84.5714 115.5,85.5C 117.078,87.3747 116.745,88.7081 114.5,89.5C 113.167,89.8333 111.833,90.1667 110.5,90.5C 111.29,89.2058 112.29,88.0391 113.5,87C 112.906,86.5357 112.239,86.369 111.5,86.5C 112.891,84.1097 114.891,82.4431 117.5,81.5 Z"/></g>
<g><path style="opacity:1" fill="#f1b706" d="M 111.5,86.5 C 112.239,86.369 112.906,86.5357 113.5,87C 112.29,88.0391 111.29,89.2058 110.5,90.5C 109.833,90.5 109.5,90.8333 109.5,91.5C 108.957,91.44 108.624,91.1067 108.5,90.5C 109.524,89.1482 110.524,87.8149 111.5,86.5 Z"/></g>
<g><path style="opacity:1" fill="#090600" d="M 121.5,138.5 C 120.778,138.082 120.278,137.416 120,136.5C 118.167,139 116.333,141.5 114.5,144C 115.527,144.513 116.527,145.013 117.5,145.5C 121.229,147.451 124.729,149.784 128,152.5C 128.79,155.634 128.457,158.634 127,161.5C 124.333,165.5 121.667,169.5 119,173.5C 103.744,164.726 88.911,155.392 74.5,145.5C 77.2984,139.398 80.9651,133.898 85.5,129C 87.1667,128.333 88.8333,128.333 90.5,129C 97.6009,133.3 104.768,137.466 112,141.5C 115.268,136.617 118.768,131.951 122.5,127.5C 123.721,126.972 124.887,126.305 126,125.5C 126.692,124.563 126.525,123.897 125.5,123.5C 120.909,117.404 115.742,111.738 110,106.5C 108,103.5 108,100.5 110,97.5C 113.758,94.0608 117.758,91.0608 122,88.5C 123.627,88.6251 125.127,89.1251 126.5,90C 137.35,101.35 148.017,112.85 158.5,124.5C 156.851,126.65 155.018,128.65 153,130.5C 148.618,125.073 143.784,120.073 138.5,115.5C 135.986,117.218 135.153,119.551 136,122.5C 139.667,126.167 143.333,129.833 147,133.5C 147.026,136.84 145.36,139.173 142,140.5C 137.299,136.134 132.966,131.467 129,126.5C 127.24,131.033 124.74,135.033 121.5,138.5 Z"/></g>
<g><path style="opacity:1" fill="#765a06" d="M 109.5,86.5 C 110.167,86.5 110.833,86.5 111.5,86.5C 110.524,87.8149 109.524,89.1482 108.5,90.5C 108.624,91.1067 108.957,91.44 109.5,91.5C 107.518,94.8103 105.185,97.8103 102.5,100.5C 101.119,98.7259 101.452,97.2259 103.5,96C 102.263,95.7679 101.263,95.2679 100.5,94.5C 102.895,91.1385 105.895,88.4719 109.5,86.5 Z"/></g>
<g><path style="opacity:1" fill="#0c0800" d="M 105.5,90.5 C 106.239,90.369 106.906,90.5357 107.5,91C 106.54,92.4194 105.707,93.9194 105,95.5C 104.25,94.8742 103.416,94.3742 102.5,94C 103.71,92.9609 104.71,91.7942 105.5,90.5 Z"/></g>
<g><path style="opacity:1" fill="#efb506" d="M 121.5,97.5 C 124.464,99.9619 127.297,102.629 130,105.5C 130.723,108.387 130.223,111.053 128.5,113.5C 124.496,109.996 120.83,106.163 117.5,102C 119.041,100.629 120.375,99.1288 121.5,97.5 Z"/></g>
<g><path style="opacity:1" fill="#261d03" d="M 114.5,89.5 C 109.24,95.6576 103.74,101.658 98,107.5C 97.3333,106.833 97.3333,106.167 98,105.5C 99.7073,103.963 101.207,102.296 102.5,100.5C 105.185,97.8103 107.518,94.8103 109.5,91.5C 109.5,90.8333 109.833,90.5 110.5,90.5C 111.833,90.1667 113.167,89.8333 114.5,89.5 Z"/></g>
<g><path style="opacity:1" fill="#221a05" d="M 417.5,97.5 C 421.504,101.672 425.338,106.005 429,110.5C 431.694,113.892 433.86,117.559 435.5,121.5C 437.004,125.478 438.17,129.478 439,133.5C 431.21,121.362 424.043,109.362 417.5,97.5 Z"/></g>
<g><path style="opacity:1" fill="#f93a32" d="M 229.5,107.5 C 232.5,107.5 235.5,107.5 238.5,107.5C 224.497,109.668 211.164,114.168 198.5,121C 189.692,127.79 184.359,136.623 182.5,147.5C 185.833,147.5 189.167,147.5 192.5,147.5C 185.624,149.357 179.457,152.691 174,157.5C 174.442,130.047 188.275,113.88 215.5,109C 220.118,108.006 224.785,107.506 229.5,107.5 Z"/></g>
<g><path style="opacity:1" fill="#ae0217" d="M 238.5,107.5 C 244.509,107.334 250.509,107.501 256.5,108C 257.672,108.419 258.672,109.085 259.5,110C 253.302,111.456 247.302,113.623 241.5,116.5C 245.733,117.981 250.067,119.148 254.5,120C 251.007,123.985 248.007,128.318 245.5,133C 254.114,132.008 262.78,131.341 271.5,131C 269.004,132.08 266.67,133.414 264.5,135C 266.5,135.667 268.5,136.333 270.5,137C 262.541,137.319 255.375,139.819 249,144.5C 245.03,149.467 243.53,155.134 244.5,161.5C 240.029,155.423 234.029,151.589 226.5,150C 215.265,147.917 203.932,147.084 192.5,147.5C 189.167,147.5 185.833,147.5 182.5,147.5C 184.359,136.623 189.692,127.79 198.5,121C 211.164,114.168 224.497,109.668 238.5,107.5 Z"/></g>
<g><path style="opacity:1" fill="#f93c32" d="M 229.5,107.5 C 249.909,104.647 269.909,106.813 289.5,114C 298.542,117.525 303.542,124.025 304.5,133.5C 299.693,132.961 294.859,132.628 290,132.5C 285.009,132.298 280.175,132.964 275.5,134.5C 285.439,136.566 295.106,139.4 304.5,143C 290.312,144.307 276.646,147.64 263.5,153C 253.771,158.837 250.271,167.337 253,178.5C 254.147,184.948 256.647,190.781 260.5,196C 254.885,195.484 249.218,195.484 243.5,196C 246.333,199.5 249.167,203 252,206.5C 254.036,209.602 255.036,212.935 255,216.5C 238.044,215.064 225.878,222.064 218.5,237.5C 219.092,234.309 220.259,231.309 222,228.5C 225.801,223.033 229.968,217.866 234.5,213C 233.308,209.251 231.642,205.751 229.5,202.5C 218.789,211.552 208.122,220.552 197.5,229.5C 194.873,228.908 192.206,228.575 189.5,228.5C 204.202,215.994 219.202,203.494 234.5,191C 238.776,187.233 242.443,183.066 245.5,178.5C 244.911,183.102 243.244,187.269 240.5,191C 244.462,190.895 248.462,190.561 252.5,190C 250.072,184.976 249.072,179.643 249.5,174C 249.313,169.345 249.979,164.845 251.5,160.5C 251.167,160.167 250.833,159.833 250.5,159.5C 248.677,160.747 246.677,161.414 244.5,161.5C 243.53,155.134 245.03,149.467 249,144.5C 255.375,139.819 262.541,137.319 270.5,137C 268.5,136.333 266.5,135.667 264.5,135C 266.67,133.414 269.004,132.08 271.5,131C 262.78,131.341 254.114,132.008 245.5,133C 248.007,128.318 251.007,123.985 254.5,120C 250.067,119.148 245.733,117.981 241.5,116.5C 247.302,113.623 253.302,111.456 259.5,110C 258.672,109.085 257.672,108.419 256.5,108C 250.509,107.501 244.509,107.334 238.5,107.5C 235.5,107.5 232.5,107.5 229.5,107.5 Z"/></g>
<g><path style="opacity:1" fill="#0f0a01" d="M 300.5,41.5 C 311.582,43.52 322.582,46.02 333.5,49C 350.167,58.3333 366.833,67.6667 383.5,77C 388.947,81.1461 394.114,85.6461 399,90.5C 399.232,89.2625 399.732,88.2625 400.5,87.5C 402.427,90.7673 404.761,93.7673 407.5,96.5C 407.333,96.8333 407.167,97.1667 407,97.5C 405.578,95.3619 403.745,94.1953 401.5,94C 407.704,102.239 413.537,110.739 419,119.5C 419.654,120.696 420.154,120.696 420.5,119.5C 418.5,115.167 416.5,110.833 414.5,106.5C 415.127,105.583 415.461,104.583 415.5,103.5C 422.334,115.665 430.334,126.999 439.5,137.5C 442.203,146.281 445.869,154.614 450.5,162.5C 449.399,167.551 450.399,172.217 453.5,176.5C 454.105,178.481 455.105,178.815 456.5,177.5C 460.423,188.019 464.923,198.352 470,208.5C 470.498,211.817 470.665,215.15 470.5,218.5C 466.871,223.875 465.538,229.875 466.5,236.5C 465.833,237.167 465.167,237.833 464.5,238.5C 464.648,233.678 463.981,229.012 462.5,224.5C 461.91,223.234 461.41,221.901 461,220.5C 460.19,224.358 460.357,228.024 461.5,231.5C 460.313,240.145 459.313,248.811 458.5,257.5C 457.833,257.167 457.167,256.833 456.5,256.5C 457.375,245.86 457.709,235.194 457.5,224.5C 458.319,221.695 458.819,218.695 459,215.5C 459.333,216.167 459.667,216.833 460,217.5C 460.333,214.167 460.667,210.833 461,207.5C 461.906,210.121 462.406,209.954 462.5,207C 462.472,205.93 462.139,205.097 461.5,204.5C 461.819,202.25 461.319,200.25 460,198.5C 459.517,199.448 459.351,200.448 459.5,201.5C 458.022,202.448 457.022,203.781 456.5,205.5C 455.156,199.801 453.989,194.135 453,188.5C 454.941,192.048 456.607,195.714 458,199.5C 458.667,197.5 458.667,195.5 458,193.5C 453.278,180.389 448.278,167.389 443,154.5C 440.064,150.56 436.731,146.893 433,143.5C 427.3,134.743 421.133,126.409 414.5,118.5C 411.934,113.035 409.101,107.702 406,102.5C 406.377,106.24 407.043,109.907 408,113.5C 399.716,106.222 392.549,98.0557 386.5,89C 377.161,81.985 368.161,74.6517 359.5,67C 353.911,64.4005 348.577,61.4005 343.5,58C 338.831,58.6783 334.164,58.345 329.5,57C 322.962,55.2409 316.462,53.4076 310,51.5C 307.966,52.9442 307.132,54.9442 307.5,57.5C 303.444,56.979 299.444,56.479 295.5,56C 294.058,60.0413 293.058,64.208 292.5,68.5C 296.5,67.8333 300.5,67.1667 304.5,66.5C 304.067,69.1656 303.567,71.8323 303,74.5C 298.454,75.5959 293.954,76.9293 289.5,78.5C 287.515,82.7356 286.848,87.069 287.5,91.5C 290.984,92.367 294.317,93.5336 297.5,95C 296.76,96.7849 296.093,98.6183 295.5,100.5C 294.833,100.833 294.167,101.167 293.5,101.5C 288.016,99.379 282.349,98.0457 276.5,97.5C 280.139,81.8084 283.973,66.1417 288,50.5C 289.214,48.9512 290.714,47.7845 292.5,47C 285.686,43.3766 278.352,41.5433 270.5,41.5C 273.171,40.7021 276.004,40.0354 279,39.5C 298.066,45.0581 317.233,49.8915 336.5,54C 324.301,50.1015 312.301,45.9348 300.5,41.5 Z"/></g>
<g><path style="opacity:1" fill="#5f4806" d="M 320.5,62.5 C 328.808,61.8066 336.474,63.9732 343.5,69C 340.053,68.2879 336.719,66.9545 333.5,65C 329.122,64.3214 324.789,63.4881 320.5,62.5 Z"/></g>
<g><path style="opacity:1" fill="#5c4609" d="M 368.5,111.5 C 368.842,110.662 369.508,110.328 370.5,110.5C 373.447,111.781 375.781,113.781 377.5,116.5C 374.755,114.432 371.755,112.766 368.5,111.5 Z"/></g>
<g><path style="opacity:1" fill="#957104" d="M 94.5,109.5 C 95.0431,109.56 95.3764,109.893 95.5,110.5C 90.8894,115.618 90.5561,115.285 94.5,109.5 Z"/></g>
<g><path style="opacity:1" fill="#febc09" d="M 254.5,113.5 C 263.226,113.161 271.893,113.661 280.5,115C 285.827,116.318 289.494,119.485 291.5,124.5C 279.034,125.177 266.701,126.344 254.5,128C 257.404,122.757 261.738,119.424 267.5,118C 262.334,117.731 257.334,116.731 252.5,115C 253.416,114.722 254.082,114.222 254.5,113.5 Z"/></g>
<g><path style="opacity:1" fill="#2f2409" d="M 65.5,117.5 C 63.4174,122 61.0841,126.334 58.5,130.5C 55.1878,135.113 52.3545,140.113 50,145.5C 49.3457,146.696 48.8457,146.696 48.5,145.5C 53.0963,136.21 57.5963,126.876 62,117.5C 64.3333,114.5 66.6667,111.5 69,108.5C 68.1875,111.534 67.0209,114.534 65.5,117.5 Z"/></g>
<g><path style="opacity:1" fill="#0b0700" d="M 418.5,187.5 C 417.508,187.328 416.842,187.662 416.5,188.5C 411.941,187.462 408.274,184.962 405.5,181C 400.388,180.981 395.722,182.481 391.5,185.5C 393.238,189.049 394.571,192.716 395.5,196.5C 392.833,197.167 390.167,197.833 387.5,198.5C 385.734,192.047 383.9,185.713 382,179.5C 390.127,176.632 397.96,173.299 405.5,169.5C 400.806,163.966 397.139,157.8 394.5,151C 388.752,153.364 383.418,156.697 378.5,161C 374.726,162.183 371.559,161.349 369,158.5C 366.174,155.011 364.007,151.178 362.5,147C 362.834,144.825 363.834,142.992 365.5,141.5C 371.518,137.142 377.518,132.809 383.5,128.5C 383.833,127.167 384.167,125.833 384.5,124.5C 385.002,126.085 386.002,126.585 387.5,126C 392.667,122.167 397.833,118.333 403,114.5C 404.876,116.422 406.376,118.589 407.5,121C 402.3,125.522 396.8,129.688 391,133.5C 391.398,135.631 392.398,137.631 394,139.5C 400.177,135.412 406.177,131.078 412,126.5C 413.697,128.699 415.197,131.032 416.5,133.5C 410.577,137.711 404.744,142.045 399,146.5C 400.54,149.604 401.54,152.937 402,156.5C 400.414,154.33 399.08,151.996 398,149.5C 397.282,148.549 396.449,148.383 395.5,149C 399.302,156.112 403.468,162.946 408,169.5C 415.161,165.996 422.661,164.163 430.5,164C 433.606,167.632 435.773,171.799 437,176.5C 437.781,177.944 437.614,179.277 436.5,180.5C 434.833,181.167 433.167,181.833 431.5,182.5C 429.911,179.579 428.411,176.579 427,173.5C 426.275,172.941 425.442,172.608 424.5,172.5C 420.684,173.714 417.018,175.214 413.5,177C 416.349,180.016 419.349,182.85 422.5,185.5C 421.234,186.362 419.901,187.029 418.5,187.5 Z"/></g>
<g><path style="opacity:1" fill="#281f06" d="M 414.5,118.5 C 415.977,122.404 416.811,126.404 417,130.5C 414.833,126.167 412.667,121.833 410.5,117.5C 410.833,117.167 411.167,116.833 411.5,116.5C 412.265,117.612 413.265,118.279 414.5,118.5 Z"/></g>
<g><path style="opacity:1" fill="#f73233" d="M 217.5,121.5 C 226.192,121.169 234.859,121.502 243.5,122.5C 240.667,127.5 237.833,132.5 235,137.5C 234.667,135.167 234.333,132.833 234,130.5C 232.927,132.547 231.761,134.547 230.5,136.5C 229.65,134.096 228.65,131.763 227.5,129.5C 226.202,132.422 225.202,135.422 224.5,138.5C 214.133,139.689 203.799,141.022 193.5,142.5C 193.32,136.885 194.653,131.719 197.5,127C 204.118,124.515 210.785,122.682 217.5,121.5 Z"/></g>
<g><path style="opacity:1" fill="#4f3c08" d="M 377.5,116.5 C 379.017,116.511 380.184,117.177 381,118.5C 381.564,120.887 382.73,122.887 384.5,124.5C 384.167,125.833 383.833,127.167 383.5,128.5C 382.263,124.46 380.263,120.46 377.5,116.5 Z"/></g>
<g><path style="opacity:1" fill="#594403" d="M 125.5,123.5 C 126.525,123.897 126.692,124.563 126,125.5C 124.887,126.305 123.721,126.972 122.5,127.5C 122.738,125.596 123.738,124.262 125.5,123.5 Z"/></g>
<g><path style="opacity:1" fill="#ebb206" d="M 402.5,84.5 C 404.371,84.8588 405.871,85.8588 407,87.5C 407.383,86.944 407.883,86.6107 408.5,86.5C 412.188,89.505 415.188,93.1716 417.5,97.5C 424.043,109.362 431.21,121.362 439,133.5C 438.17,129.478 437.004,125.478 435.5,121.5C 440.557,127.922 445.39,134.589 450,141.5C 450.654,142.696 451.154,142.696 451.5,141.5C 445.258,128.356 439.091,115.356 433,102.5C 440.585,114.668 447.918,127.001 455,139.5C 455.741,142.562 455.575,145.562 454.5,148.5C 455.174,150.517 456.341,152.183 458,153.5C 462.667,166.833 467.333,180.167 472,193.5C 473.9,197.632 474.733,201.966 474.5,206.5C 474.784,208.415 474.451,210.081 473.5,211.5C 473.66,209.801 473.494,208.134 473,206.5C 472.501,211.155 472.334,215.821 472.5,220.5C 471.833,219.833 471.167,219.167 470.5,218.5C 470.665,215.15 470.498,211.817 470,208.5C 464.923,198.352 460.423,188.019 456.5,177.5C 455.677,174.539 455.01,171.539 454.5,168.5C 453.869,165.298 452.869,162.298 451.5,159.5C 451.606,156.921 450.939,154.588 449.5,152.5C 446.206,147.153 443.372,141.486 441,135.5C 440.283,136.044 439.783,136.711 439.5,137.5C 430.334,126.999 422.334,115.665 415.5,103.5C 415.461,104.583 415.127,105.583 414.5,106.5C 416.5,110.833 418.5,115.167 420.5,119.5C 420.154,120.696 419.654,120.696 419,119.5C 413.537,110.739 407.704,102.239 401.5,94C 403.745,94.1953 405.578,95.3619 407,97.5C 407.167,97.1667 407.333,96.8333 407.5,96.5C 404.761,93.7673 402.427,90.7673 400.5,87.5C 400.5,86.8333 400.833,86.5 401.5,86.5C 402.601,87.7997 403.934,88.2997 405.5,88C 404.29,86.9609 403.29,85.7942 402.5,84.5 Z"/></g>
<g><path style="opacity:1" fill="#261d05" d="M 415.5,103.5 C 414.017,101.906 412.517,100.24 411,98.5C 410.333,97.8333 410.333,97.1667 411,96.5C 413.519,98.2115 415.019,100.545 415.5,103.5 Z"/></g>
<g><path style="opacity:1" fill="#6f5403" d="M 470.5,134.5 C 468.569,132.206 467.736,129.539 468,126.5C 469.341,129.022 470.174,131.689 470.5,134.5 Z"/></g>
<g><path style="opacity:1" fill="#9a7503" d="M 470.5,134.5 C 472.969,138.079 474.136,142.079 474,146.5C 472.523,142.57 471.356,138.57 470.5,134.5 Z"/></g>
<g><path style="opacity:1" fill="#523f0a" d="M 389.5,142.5 C 389.396,140.297 388.73,138.297 387.5,136.5C 388.117,136.389 388.617,136.056 389,135.5C 390.167,137.167 391.333,138.833 392.5,140.5C 391.218,140.088 390.218,140.754 389.5,142.5 Z"/></g>
<g><path style="opacity:1" fill="#f1b706" d="M 387.5,136.5 C 388.73,138.297 389.396,140.297 389.5,142.5C 385.153,146.164 380.487,149.498 375.5,152.5C 373.639,151.472 372.305,149.972 371.5,148C 376.686,143.912 382.02,140.079 387.5,136.5 Z"/></g>
<g><path style="opacity:1" fill="#efb606" d="M 106.5,154.5 C 105.883,154.611 105.383,154.944 105,155.5C 98.2051,151.526 91.7051,147.192 85.5,142.5C 86.2485,140.668 87.2485,139.001 88.5,137.5C 95.3348,141.416 102.002,145.583 108.5,150C 107.418,151.33 106.751,152.83 106.5,154.5 Z"/></g>
<g><path style="opacity:1" fill="#fdb90a" d="M 261.5,141.5 C 265.846,141.334 270.179,141.501 274.5,142C 265.062,144.3 256.896,148.8 250,155.5C 249.743,152.983 250.41,150.65 252,148.5C 254.79,145.535 257.957,143.202 261.5,141.5 Z"/></g>
<g><path style="opacity:1" fill="#3e2f08" d="M 121.5,138.5 C 119.295,140.363 117.961,142.697 117.5,145.5C 116.527,145.013 115.527,144.513 114.5,144C 116.333,141.5 118.167,139 120,136.5C 120.278,137.416 120.778,138.082 121.5,138.5 Z"/></g>
<g><path style="opacity:1" fill="#b10a18" d="M 205.5,150.5 C 209.072,152.083 212.738,153.583 216.5,155C 210.319,155.172 204.319,155.672 198.5,156.5C 187.426,157.449 179.259,162.783 174,172.5C 168.99,184.944 168.323,197.61 172,210.5C 172.997,212.323 174.164,213.99 175.5,215.5C 174.5,215.5 173.5,215.5 172.5,215.5C 168.769,203.812 167.602,191.812 169,179.5C 171.558,169.792 176.391,161.459 183.5,154.5C 185.858,152.871 188.524,151.705 191.5,151C 196.155,150.501 200.821,150.334 205.5,150.5 Z"/></g>
<g><path style="opacity:1" fill="#fa3b33" d="M 205.5,150.5 C 215.883,150.286 225.883,152.119 235.5,156C 247.715,166.825 247.382,177.492 234.5,188C 222.106,197.85 209.773,207.684 197.5,217.5C 198.692,214.282 200.025,211.115 201.5,208C 201.272,207.601 200.938,207.435 200.5,207.5C 211.31,198.198 222.31,189.031 233.5,180C 239.916,169.801 237.25,162.801 225.5,159C 216.604,157.04 207.604,156.207 198.5,156.5C 204.319,155.672 210.319,155.172 216.5,155C 212.738,153.583 209.072,152.083 205.5,150.5 Z"/></g>
<g><path style="opacity:1" fill="#fb3d33" d="M 323.5,215.5 C 327.191,209.067 328.857,202.067 328.5,194.5C 328.956,167.955 315.956,155.288 289.5,156.5C 285.065,153.473 280.065,152.139 274.5,152.5C 275.952,151.698 277.618,151.198 279.5,151C 318.183,145.021 336.683,161.521 335,200.5C 334.632,205.304 333.632,209.97 332,214.5C 329.281,215.444 326.448,215.777 323.5,215.5 Z"/></g>
<g><path style="opacity:1" fill="#e3ac06" d="M 106.5,154.5 C 107.885,153.426 109.051,152.093 110,150.5C 113.5,152.667 117,154.833 120.5,157C 119.36,158.973 118.027,160.807 116.5,162.5C 113.632,160.468 110.632,158.635 107.5,157C 106.748,156.329 106.414,155.496 106.5,154.5 Z"/></g>
<g><path style="opacity:1" fill="#b10d17" d="M 274.5,152.5 C 280.065,152.139 285.065,153.473 289.5,156.5C 281.416,156.625 273.749,158.458 266.5,162C 261.404,166.248 260.237,171.415 263,177.5C 271.331,184.399 279.498,191.399 287.5,198.5C 288.203,200.716 289.536,202.549 291.5,204C 291.167,204.167 290.833,204.333 290.5,204.5C 287.145,203.154 283.812,201.82 280.5,200.5C 276.183,197.514 272.183,194.18 268.5,190.5C 263.609,185.758 260.109,180.091 258,173.5C 256.965,166.903 258.799,161.236 263.5,156.5C 266.797,154.399 270.463,153.065 274.5,152.5 Z"/></g>
<g><path style="opacity:1" fill="#c09205" d="M 449.5,152.5 C 448.957,152.56 448.624,152.893 448.5,153.5C 449.136,155.78 450.136,157.78 451.5,159.5C 452.869,162.298 453.869,165.298 454.5,168.5C 453.92,171.185 453.586,173.852 453.5,176.5C 450.399,172.217 449.399,167.551 450.5,162.5C 445.869,154.614 442.203,146.281 439.5,137.5C 439.783,136.711 440.283,136.044 441,135.5C 443.372,141.486 446.206,147.153 449.5,152.5 Z"/></g>
<g><path style="opacity:1" fill="#f5b30f" d="M 198.5,156.5 C 207.604,156.207 216.604,157.04 225.5,159C 237.25,162.801 239.916,169.801 233.5,180C 222.31,189.031 211.31,198.198 200.5,207.5C 196.325,210.835 191.992,214.002 187.5,217C 185.19,217.497 182.857,217.663 180.5,217.5C 179.049,215.625 177.383,214.958 175.5,215.5C 174.164,213.99 172.997,212.323 172,210.5C 168.323,197.61 168.99,184.944 174,172.5C 179.259,162.783 187.426,157.449 198.5,156.5 Z"/></g>
<g><path style="opacity:1" fill="#745804" d="M 478.5,157.5 C 477.833,157.5 477.5,157.833 477.5,158.5C 476.067,156.086 475.567,153.419 476,150.5C 476.744,152.9 477.577,155.233 478.5,157.5 Z"/></g>
<g><path style="opacity:1" fill="#f83932" d="M 183.5,154.5 C 176.391,161.459 171.558,169.792 169,179.5C 167.602,191.812 168.769,203.812 172.5,215.5C 167.811,216.316 165.311,214.316 165,209.5C 161.459,193.702 163.459,178.702 171,164.5C 174.484,160.169 178.651,156.836 183.5,154.5 Z"/></g>
<g><path style="opacity:1" fill="#382b06" d="M 449.5,152.5 C 450.939,154.588 451.606,156.921 451.5,159.5C 450.136,157.78 449.136,155.78 448.5,153.5C 448.624,152.893 448.957,152.56 449.5,152.5 Z"/></g>
<g><path style="opacity:1" fill="#f73735" d="M 198.5,159.5 C 202.458,162.961 205.458,167.128 207.5,172C 202.821,174.961 197.821,177.461 192.5,179.5C 190.121,182.937 189.454,186.604 190.5,190.5C 193.037,188.93 195.704,188.097 198.5,188C 194.5,191 190.5,194 186.5,197C 190.706,195.602 195.039,194.602 199.5,194C 196.717,200.228 192.717,205.561 187.5,210C 184.464,212.006 181.131,212.84 177.5,212.5C 175.59,211.025 174.424,209.025 174,206.5C 171.498,194.864 172.498,183.531 177,172.5C 181.603,163.948 188.77,159.614 198.5,159.5 Z"/></g>
<g><path style="opacity:1" fill="#53504f" d="M 198.5,159.5 C 208.731,158.79 218.731,159.957 228.5,163C 233.924,165.017 235.758,168.85 234,174.5C 232.542,176.96 230.709,179.127 228.5,181C 215.316,191.428 202.316,202.094 189.5,213C 185.245,216.449 181.245,216.282 177.5,212.5C 181.131,212.84 184.464,212.006 187.5,210C 192.717,205.561 196.717,200.228 199.5,194C 195.039,194.602 190.706,195.602 186.5,197C 190.5,194 194.5,191 198.5,188C 195.704,188.097 193.037,188.93 190.5,190.5C 189.454,186.604 190.121,182.937 192.5,179.5C 197.821,177.461 202.821,174.961 207.5,172C 205.458,167.128 202.458,162.961 198.5,159.5 Z"/></g>
<g><path style="opacity:1" fill="#b10518" d="M 245.5,178.5 C 246.957,172.732 246.623,167.065 244.5,161.5C 246.677,161.414 248.677,160.747 250.5,159.5C 250.833,159.833 251.167,160.167 251.5,160.5C 249.979,164.845 249.313,169.345 249.5,174C 249.072,179.643 250.072,184.976 252.5,190C 248.462,190.561 244.462,190.895 240.5,191C 243.244,187.269 244.911,183.102 245.5,178.5 Z"/></g>
<g><path style="opacity:1" fill="#f83d31" d="M 263.5,156.5 C 258.799,161.236 256.965,166.903 258,173.5C 260.109,180.091 263.609,185.758 268.5,190.5C 262.005,186.84 257.505,181.506 255,174.5C 253.889,169.389 254.889,164.722 258,160.5C 259.451,158.536 261.284,157.203 263.5,156.5 Z"/></g>
<g><path style="opacity:1" fill="#654d08" d="M 39.5,168.5 C 39.5,167.833 39.5,167.167 39.5,166.5C 39.7553,163.984 40.5886,161.65 42,159.5C 42.1667,160 42.3333,160.5 42.5,161C 41.4111,163.584 40.4111,166.084 39.5,168.5 Z"/></g>
<g><path style="opacity:1" fill="#f6b50f" d="M 289.5,156.5 C 315.956,155.288 328.956,167.955 328.5,194.5C 328.857,202.067 327.191,209.067 323.5,215.5C 322.07,216.537 320.403,217.204 318.5,217.5C 315.813,217.664 313.146,217.497 310.5,217C 302.803,210.825 295.136,204.658 287.5,198.5C 279.498,191.399 271.331,184.399 263,177.5C 260.237,171.415 261.404,166.248 266.5,162C 273.749,158.458 281.416,156.625 289.5,156.5 Z"/></g>
<g><path style="opacity:1" fill="#52504f" d="M 292.5,159.5 C 309.695,157.51 320.529,164.843 325,181.5C 327.105,191.682 326.438,201.682 323,211.5C 317.355,216.907 311.855,216.74 306.5,211C 300.095,205.482 293.761,199.982 287.5,194.5C 292.468,195.903 296.801,194.736 300.5,191C 298.167,188.667 295.833,186.333 293.5,184C 296.563,184.467 299.563,185.134 302.5,186C 298.167,182.333 293.833,178.667 289.5,175C 295.102,176.532 300.769,177.866 306.5,179C 304,177.167 301.5,175.333 299,173.5C 297.496,168.472 295.33,163.805 292.5,159.5 Z"/></g>
<g><path style="opacity:1" fill="#f73735" d="M 292.5,159.5 C 295.33,163.805 297.496,168.472 299,173.5C 301.5,175.333 304,177.167 306.5,179C 300.769,177.866 295.102,176.532 289.5,175C 293.833,178.667 298.167,182.333 302.5,186C 299.563,185.134 296.563,184.467 293.5,184C 295.833,186.333 298.167,188.667 300.5,191C 296.801,194.736 292.468,195.903 287.5,194.5C 279.58,188.753 272.08,182.42 265,175.5C 264.071,171.756 264.571,168.256 266.5,165C 274.686,160.996 283.353,159.163 292.5,159.5 Z"/></g>
<g><path style="opacity:1" fill="#594f4e" d="M 191.5,167.5 C 195.577,167.017 197.91,168.684 198.5,172.5C 192.782,174.134 187.115,175.634 181.5,177C 184.729,173.601 188.062,170.435 191.5,167.5 Z"/></g>
<g><path style="opacity:1" fill="#3b2d08" d="M 98.5,166.5 C 98.9128,170.178 98.0794,173.844 96,177.5C 95.734,173.565 96.5674,169.899 98.5,166.5 Z"/></g>
<g><path style="opacity:1" fill="#473605" d="M 454.5,168.5 C 455.01,171.539 455.677,174.539 456.5,177.5C 455.105,178.815 454.105,178.481 453.5,176.5C 453.586,173.852 453.92,171.185 454.5,168.5 Z"/></g>
<g><path style="opacity:1" fill="#c89805" d="M 478.5,157.5 C 480.497,166.264 482.997,174.931 486,183.5C 486.499,188.155 486.666,192.821 486.5,197.5C 486.768,199.099 486.434,200.432 485.5,201.5C 483.348,187.073 480.681,172.74 477.5,158.5C 477.5,157.833 477.833,157.5 478.5,157.5 Z"/></g>
<g><path style="opacity:1" fill="#1c1503" d="M 39.5,166.5 C 39.5,167.167 39.5,167.833 39.5,168.5C 38.0096,172.982 36.3429,177.316 34.5,181.5C 34.4895,175.849 36.1562,170.849 39.5,166.5 Z"/></g>
<g><path style="opacity:1" fill="#362906" d="M 51.5,172.5 C 51.5,173.167 51.8333,173.5 52.5,173.5C 50.9098,177.098 49.4098,180.764 48,184.5C 48.2647,180.209 49.4314,176.209 51.5,172.5 Z"/></g>
<g><path style="opacity:1" fill="#090600" d="M 60.5,175.5 C 76.2272,179.352 91.8939,183.519 107.5,188C 110.349,190.559 111.183,193.726 110,197.5C 109.308,200.936 108.308,204.27 107,207.5C 105.178,209.045 103.011,209.712 100.5,209.5C 85.5955,206.44 70.9288,202.44 56.5,197.5C 55.2614,194.679 55.5948,192.013 57.5,189.5C 72.0923,193.815 86.759,197.815 101.5,201.5C 101.674,199.139 102.007,196.806 102.5,194.5C 88.7395,191.476 75.0728,187.976 61.5,184C 60.4216,183.326 59.7549,182.326 59.5,181C 59.9434,179.175 60.2767,177.342 60.5,175.5 Z"/></g>
<g><path style="opacity:1" fill="#5e4e4d" d="M 278.5,177.5 C 283.274,181.098 287.94,184.931 292.5,189C 288.396,191.243 284.896,190.41 282,186.5C 280.259,183.691 279.092,180.691 278.5,177.5 Z"/></g>
<g><path style="opacity:1" fill="#1a1303" d="M 28.5,177.5 C 29.7794,181.3 30.2794,185.3 30,189.5C 26.4693,199.092 23.136,208.759 20,218.5C 22.3951,204.812 25.2285,191.145 28.5,177.5 Z"/></g>
<g><path style="opacity:1" fill="#5c4607" d="M 34.5,181.5 C 34.2627,182.791 34.596,183.791 35.5,184.5C 34.6493,186.882 33.316,188.882 31.5,190.5C 31.7475,187.146 32.7475,184.146 34.5,181.5 Z"/></g>
<g><path style="opacity:1" fill="#fdb90a" d="M 233.5,199.5 C 239.652,200.583 244.318,204.25 247.5,210.5C 245.477,211.041 243.477,210.541 241.5,209C 238.231,206.265 235.564,203.099 233.5,199.5 Z"/></g>
<g><path style="opacity:1" fill="#af0617" d="M 218.5,237.5 C 212.457,253.225 213.29,268.558 221,283.5C 228.965,294.614 239.798,299.614 253.5,298.5C 254.239,298.369 254.906,298.536 255.5,299C 253.461,301.374 251.128,303.374 248.5,305C 251.424,305.988 254.424,306.654 257.5,307C 250.824,310.086 243.824,312.086 236.5,313C 239.886,316.018 243.553,318.518 247.5,320.5C 236.816,320.608 226.483,318.775 216.5,315C 215.058,314.623 214.058,313.79 213.5,312.5C 207.333,307.01 202.333,300.676 198.5,293.5C 201.49,290.658 203.99,287.324 206,283.5C 214.053,263.624 211.219,245.624 197.5,229.5C 208.122,220.552 218.789,211.552 229.5,202.5C 231.642,205.751 233.308,209.251 234.5,213C 229.968,217.866 225.801,223.033 222,228.5C 220.259,231.309 219.092,234.309 218.5,237.5 Z"/></g>
<g><path style="opacity:1" fill="#fa3c32" d="M 287.5,198.5 C 295.136,204.658 302.803,210.825 310.5,217C 313.146,217.497 315.813,217.664 318.5,217.5C 316.396,219.099 314.396,220.932 312.5,223C 307.875,223.026 303.875,221.36 300.5,218C 293.574,212.385 286.907,206.552 280.5,200.5C 283.812,201.82 287.145,203.154 290.5,204.5C 290.833,204.333 291.167,204.167 291.5,204C 289.536,202.549 288.203,200.716 287.5,198.5 Z"/></g>
<g><path style="opacity:1" fill="#a77f05" d="M 420.5,211.5 C 418.735,212.461 416.735,212.795 414.5,212.5C 413.932,206.166 413.766,199.833 414,193.5C 415.239,199.435 415.739,205.435 415.5,211.5C 417.167,211.5 418.833,211.5 420.5,211.5 Z"/></g>
<g><path style="opacity:1" fill="#695006" d="M 416.5,188.5 C 416.842,187.662 417.508,187.328 418.5,187.5C 421.285,194.973 423.285,202.639 424.5,210.5C 426.167,210.5 427.833,210.5 429.5,210.5C 427.735,211.461 425.735,211.795 423.5,211.5C 421.985,204.108 420.152,196.774 418,189.5C 417.617,188.944 417.117,188.611 416.5,188.5 Z"/></g>
<g><path style="opacity:1" fill="#705503" d="M 459.5,201.5 C 458.772,204.079 458.272,206.746 458,209.5C 457.209,208.255 456.709,206.922 456.5,205.5C 457.022,203.781 458.022,202.448 459.5,201.5 Z"/></g>
<g><path style="opacity:1" fill="#b21217" d="M 200.5,207.5 C 200.938,207.435 201.272,207.601 201.5,208C 200.025,211.115 198.692,214.282 197.5,217.5C 195.011,220.473 191.844,222.473 188,223.5C 185.323,221.65 182.823,219.65 180.5,217.5C 182.857,217.663 185.19,217.497 187.5,217C 191.992,214.002 196.325,210.835 200.5,207.5 Z"/></g>
<g><path style="opacity:1" fill="#050300" d="M 429.5,210.5 C 433.514,210.334 437.514,210.501 441.5,211C 443.333,211.5 444.5,212.667 445,214.5C 446.682,219.896 446.682,225.229 445,230.5C 438.028,235.577 432.861,234.244 429.5,226.5C 431.396,225.534 433.396,225.201 435.5,225.5C 436.5,225.5 437.5,225.5 438.5,225.5C 438.5,223.167 438.5,220.833 438.5,218.5C 435.287,218.19 432.287,218.523 429.5,219.5C 419.815,219.926 410.149,220.593 400.5,221.5C 400.5,223.833 400.5,226.167 400.5,228.5C 405.177,228.165 409.844,227.665 414.5,227C 413.643,226.311 412.977,225.478 412.5,224.5C 415.833,223.167 419.167,223.167 422.5,224.5C 424.5,227.5 426.5,230.5 428.5,233.5C 416.879,235.218 405.212,236.552 393.5,237.5C 393.378,230.804 393.211,224.138 393,217.5C 394.167,216.333 395.333,215.167 396.5,214C 402.515,213.576 408.515,213.076 414.5,212.5C 416.735,212.795 418.735,212.461 420.5,211.5C 421.5,211.5 422.5,211.5 423.5,211.5C 425.735,211.795 427.735,211.461 429.5,210.5 Z"/></g>
<g><path style="opacity:1" fill="#f83333" d="M 221.5,213.5 C 223.827,213.247 225.827,213.914 227.5,215.5C 225.135,220.234 221.802,223.234 217.5,224.5C 218.485,226.098 218.651,227.765 218,229.5C 215.182,234.142 213.182,239.142 212,244.5C 210.703,239.106 208.537,234.106 205.5,229.5C 210.548,223.785 215.881,218.452 221.5,213.5 Z"/></g>
<g><path style="opacity:1" fill="#735703" d="M 461.5,204.5 C 462.139,205.097 462.472,205.93 462.5,207C 462.406,209.954 461.906,210.121 461,207.5C 460.667,210.833 460.333,214.167 460,217.5C 459.667,216.833 459.333,216.167 459,215.5C 458.819,218.695 458.319,221.695 457.5,224.5C 457.334,220.154 457.501,215.821 458,211.5C 458.333,212.167 458.667,212.833 459,213.5C 459.333,210.5 459.667,207.5 460,204.5C 460.779,207.097 461.279,207.097 461.5,204.5 Z"/></g>
<g><path style="opacity:1" fill="#5a4404" d="M 474.5,206.5 C 475.652,211.985 475.818,217.651 475,223.5C 474.172,219.534 473.672,215.534 473.5,211.5C 474.451,210.081 474.784,208.415 474.5,206.5 Z"/></g>
<g><path style="opacity:1" fill="#6f5404" d="M 486.5,197.5 C 487.897,206.646 488.397,215.979 488,225.5C 487.056,217.504 486.223,209.504 485.5,201.5C 486.434,200.432 486.768,199.099 486.5,197.5 Z"/></g>
<g><path style="opacity:1" fill="#f93b33" d="M 158.5,220.5 C 154.468,221.694 151.468,224.194 149.5,228C 146.823,228.249 144.49,229.249 142.5,231C 145.553,231.179 148.553,231.679 151.5,232.5C 148.95,233.604 146.617,234.937 144.5,236.5C 136.095,242.824 132.428,251.324 133.5,262C 132.67,269.845 134.504,277.011 139,283.5C 140.812,284.977 142.645,286.31 144.5,287.5C 142.33,288.768 140.163,288.768 138,287.5C 137.319,294.296 139.486,299.963 144.5,304.5C 136.508,299.313 131.341,291.979 129,282.5C 124.874,265.811 125.874,249.478 132,233.5C 135.569,225.093 141.736,219.76 150.5,217.5C 153.555,217.737 156.221,218.737 158.5,220.5 Z"/></g>
<g><path style="opacity:1" fill="#fa3733" d="M 166.5,301.5 C 179.824,288.368 185.324,272.368 183,253.5C 182.145,248.748 180.979,244.081 179.5,239.5C 179.846,238.304 180.346,238.304 181,239.5C 187.032,248.65 188.032,247.65 184,236.5C 179.418,226.799 171.918,220.799 161.5,218.5C 165.069,217.357 169.403,217.19 174.5,218C 177.952,218.892 180.952,220.558 183.5,223C 194.807,238.74 198.64,256.24 195,275.5C 193.492,287.694 187.992,297.527 178.5,305C 172.585,306.527 166.585,306.861 160.5,306C 162.66,304.668 164.66,303.168 166.5,301.5 Z"/></g>
<g><path style="opacity:1" fill="#b40b19" d="M 245.5,218.5 C 248.928,218.547 251.928,219.713 254.5,222C 249.38,222.43 244.713,223.93 240.5,226.5C 238.287,227.773 235.954,228.773 233.5,229.5C 232.448,229.649 231.448,229.483 230.5,229C 233.371,226.297 236.038,223.464 238.5,220.5C 240.599,219.388 242.933,218.721 245.5,218.5 Z"/></g>
<g><path style="opacity:1" fill="#f93d32" d="M 245.5,218.5 C 262.224,217.709 273.057,225.376 278,241.5C 268.563,228.963 256.063,223.963 240.5,226.5C 244.713,223.93 249.38,222.43 254.5,222C 251.928,219.713 248.928,218.547 245.5,218.5 Z"/></g>
<g><path style="opacity:1" fill="#f93833" d="M 336.5,219.5 C 331.359,217.348 327.192,218.682 324,223.5C 319.082,229.327 316.415,235.994 316,243.5C 317.333,242.167 318.667,240.833 320,239.5C 316.522,254.594 315.688,269.928 317.5,285.5C 317.881,288.325 316.881,290.491 314.5,292C 316.715,293.044 319.048,293.71 321.5,294C 317.953,296.045 317.953,298.378 321.5,301C 325.227,303.701 329.227,305.535 333.5,306.5C 324.427,308.047 317.26,305.047 312,297.5C 299.011,273.29 299.345,249.29 313,225.5C 319.889,217.888 328.389,215.388 338.5,218C 337.956,218.717 337.289,219.217 336.5,219.5 Z"/></g>
<g><path style="opacity:1" fill="#af0717" d="M 336.5,219.5 C 325.704,230.864 320.371,244.531 320.5,260.5C 320.307,275.071 324.14,288.405 332,300.5C 333.873,302.709 336.04,304.542 338.5,306C 336.866,306.494 335.199,306.66 333.5,306.5C 329.227,305.535 325.227,303.701 321.5,301C 317.953,298.378 317.953,296.045 321.5,294C 319.048,293.71 316.715,293.044 314.5,292C 316.881,290.491 317.881,288.325 317.5,285.5C 315.688,269.928 316.522,254.594 320,239.5C 318.667,240.833 317.333,242.167 316,243.5C 316.415,235.994 319.082,229.327 324,223.5C 327.192,218.682 331.359,217.348 336.5,219.5 Z"/></g>
<g><path style="opacity:1" fill="#ad0417" d="M 344.5,218.5 C 349.067,218.056 352.067,220.056 353.5,224.5C 351.784,224.997 350.117,225.331 348.5,225.5C 350.094,228.991 350.761,232.658 350.5,236.5C 342.985,239.148 338.485,244.481 337,252.5C 335.429,262.615 336.762,272.282 341,281.5C 343.086,284.094 345.586,286.094 348.5,287.5C 345.898,289.451 343.064,289.784 340,288.5C 339.37,290.903 340.203,292.737 342.5,294C 344.5,295 346.5,296 348.5,297C 342.476,299.445 336.81,298.945 331.5,295.5C 320.069,271.683 320.902,248.35 334,225.5C 336.612,221.781 340.112,219.448 344.5,218.5 Z"/></g>
<g><path style="opacity:1" fill="#997404" d="M 429.5,219.5 C 432.287,218.523 435.287,218.19 438.5,218.5C 438.5,220.833 438.5,223.167 438.5,225.5C 437.5,225.5 436.5,225.5 435.5,225.5C 437.075,223.886 437.741,221.886 437.5,219.5C 434.833,219.5 432.167,219.5 429.5,219.5 Z"/></g>
<g><path style="opacity:1" fill="#b00a17" d="M 161.5,218.5 C 171.918,220.799 179.418,226.799 184,236.5C 188.032,247.65 187.032,248.65 181,239.5C 180.346,238.304 179.846,238.304 179.5,239.5C 180.979,244.081 182.145,248.748 183,253.5C 185.324,272.368 179.824,288.368 166.5,301.5C 176.147,285.891 179.647,268.891 177,250.5C 175.819,237.807 170.652,227.14 161.5,218.5 Z"/></g>
<g><path style="opacity:1" fill="#fa3a33" d="M 344.5,218.5 C 349.567,217.229 354.234,218.396 358.5,222C 366.909,231.882 371.409,243.382 372,256.5C 372.981,270.243 370.315,283.243 364,295.5C 357.45,306.577 348.617,309.077 337.5,303C 335.371,300.561 333.371,298.061 331.5,295.5C 336.81,298.945 342.476,299.445 348.5,297C 346.5,296 344.5,295 342.5,294C 340.203,292.737 339.37,290.903 340,288.5C 343.064,289.784 345.898,289.451 348.5,287.5C 353.347,288.16 357.181,286.493 360,282.5C 367.331,268.858 367.331,255.191 360,241.5C 357.459,238.646 354.292,236.979 350.5,236.5C 350.761,232.658 350.094,228.991 348.5,225.5C 350.117,225.331 351.784,224.997 353.5,224.5C 352.067,220.056 349.067,218.056 344.5,218.5 Z"/></g>
<g><path style="opacity:1" fill="#ad0517" d="M 158.5,220.5 C 160.735,221.228 162.568,222.561 164,224.5C 178.033,247.556 179.033,271.223 167,295.5C 163.473,302.204 157.973,305.87 150.5,306.5C 148.117,306.639 146.117,305.972 144.5,304.5C 139.486,299.963 137.319,294.296 138,287.5C 140.163,288.768 142.33,288.768 144.5,287.5C 149.74,288.462 153.907,286.795 157,282.5C 164.572,268.318 164.239,254.318 156,240.5C 152.819,237.328 148.986,235.994 144.5,236.5C 146.617,234.937 148.95,233.604 151.5,232.5C 148.553,231.679 145.553,231.179 142.5,231C 144.49,229.249 146.823,228.249 149.5,228C 151.468,224.194 154.468,221.694 158.5,220.5 Z"/></g>
<g><path style="opacity:1" fill="#fb4531" d="M 238.5,220.5 C 236.038,223.464 233.371,226.297 230.5,229C 231.448,229.483 232.448,229.649 233.5,229.5C 228.57,232.595 224.403,236.595 221,241.5C 222.948,231.376 228.781,224.376 238.5,220.5 Z"/></g>
<g><path style="opacity:1" fill="#957103" d="M 462.5,224.5 C 461.532,226.607 461.198,228.941 461.5,231.5C 460.357,228.024 460.19,224.358 461,220.5C 461.41,221.901 461.91,223.234 462.5,224.5 Z"/></g>
<g><path style="opacity:1" fill="#070500" d="M 59.5,227.5 C 74.4877,228.257 89.4877,228.591 104.5,228.5C 104.5,229.5 104.5,230.5 104.5,231.5C 103.549,232.919 103.216,234.585 103.5,236.5C 97.8333,236.5 92.1667,236.5 86.5,236.5C 74.8296,236.272 63.163,235.938 51.5,235.5C 51.5,232.833 51.5,230.167 51.5,227.5C 54.1667,227.5 56.8333,227.5 59.5,227.5 Z"/></g>
<g><path style="opacity:1" fill="#fa3c33" d="M 236.5,293.5 C 242.041,294.624 246.374,292.958 249.5,288.5C 267.623,285.536 275.79,274.869 274,256.5C 269.631,241.734 259.797,235.068 244.5,236.5C 245.952,235.698 247.618,235.198 249.5,235C 248.874,234.25 248.374,233.416 248,232.5C 244.951,231.39 241.784,230.723 238.5,230.5C 260.052,225.033 274.219,233.033 281,254.5C 282.906,282.255 270.073,296.088 242.5,296C 240.277,295.434 238.277,294.6 236.5,293.5 Z"/></g>
<g><path style="opacity:1" fill="#745803" d="M 59.5,227.5 C 56.8333,227.5 54.1667,227.5 51.5,227.5C 51.5,230.167 51.5,232.833 51.5,235.5C 50.5233,232.713 50.19,229.713 50.5,226.5C 53.7131,226.19 56.7131,226.523 59.5,227.5 Z"/></g>
<g><path style="opacity:1" fill="#b00b17" d="M 238.5,230.5 C 241.784,230.723 244.951,231.39 248,232.5C 248.374,233.416 248.874,234.25 249.5,235C 247.618,235.198 245.952,235.698 244.5,236.5C 229.111,241.593 222.611,252.26 225,268.5C 228.66,280.74 236.827,287.407 249.5,288.5C 246.374,292.958 242.041,294.624 236.5,293.5C 233.079,292.461 230.412,290.461 228.5,287.5C 218.299,271.064 217.966,254.398 227.5,237.5C 230.311,233.922 233.978,231.589 238.5,230.5 Z"/></g>
<g><path style="opacity:1" fill="#fb4531" d="M 296.5,239.5 C 296.709,240.922 297.209,242.255 298,243.5C 299.847,239.807 301.68,236.14 303.5,232.5C 304.314,230.727 305.648,230.227 307.5,231C 301.64,239.244 298.14,248.411 297,258.5C 296.667,257.5 296.333,256.5 296,255.5C 293.173,269.684 296.673,282.184 306.5,293C 303.657,292.885 301.157,291.718 299,289.5C 295.858,284.882 293.524,279.882 292,274.5C 291.333,266.167 291.333,257.833 292,249.5C 292.844,245.771 294.344,242.437 296.5,239.5 Z"/></g>
<g><path style="opacity:1" fill="#f94231" d="M 199.5,236.5 C 202.263,243.893 203.597,251.56 203.5,259.5C 204.959,259.567 206.292,259.234 207.5,258.5C 209.061,271.202 205.561,282.202 197,291.5C 199.632,284.425 201.799,277.092 203.5,269.5C 202.726,268.289 201.893,268.289 201,269.5C 200.877,260.773 200.21,252.106 199,243.5C 197.607,238.639 195.107,234.472 191.5,231C 195.361,231.097 198.028,232.93 199.5,236.5 Z"/></g>
<g><path style="opacity:1" fill="#574205" d="M 104.5,231.5 C 104.5,233.5 104.5,235.5 104.5,237.5C 98.31,237.823 92.31,237.49 86.5,236.5C 92.1667,236.5 97.8333,236.5 103.5,236.5C 103.216,234.585 103.549,232.919 104.5,231.5 Z"/></g>
<g><path style="opacity:1" fill="#b61019" d="M 303.5,232.5 C 301.68,236.14 299.847,239.807 298,243.5C 297.209,242.255 296.709,240.922 296.5,239.5C 297.855,236.145 300.189,233.811 303.5,232.5 Z"/></g>
<g><path style="opacity:1" fill="#fdbd08" d="M 244.5,236.5 C 259.797,235.068 269.631,241.734 274,256.5C 275.79,274.869 267.623,285.536 249.5,288.5C 236.827,287.407 228.66,280.74 225,268.5C 222.611,252.26 229.111,241.593 244.5,236.5 Z"/></g>
<g><path style="opacity:1" fill="#fdbd08" d="M 144.5,236.5 C 148.986,235.994 152.819,237.328 156,240.5C 164.239,254.318 164.572,268.318 157,282.5C 153.907,286.795 149.74,288.462 144.5,287.5C 142.645,286.31 140.812,284.977 139,283.5C 134.504,277.011 132.67,269.845 133.5,262C 132.428,251.324 136.095,242.824 144.5,236.5 Z"/></g>
<g><path style="opacity:1" fill="#fdbc08" d="M 350.5,236.5 C 354.292,236.979 357.459,238.646 360,241.5C 367.331,255.191 367.331,268.858 360,282.5C 357.181,286.493 353.347,288.16 348.5,287.5C 345.586,286.094 343.086,284.094 341,281.5C 336.762,272.282 335.429,262.615 337,252.5C 338.485,244.481 342.985,239.148 350.5,236.5 Z"/></g>
<g><path style="opacity:1" fill="#b31417" d="M 199.5,236.5 C 202.324,238.8 204.157,241.8 205,245.5C 206.157,249.782 206.99,254.116 207.5,258.5C 206.292,259.234 204.959,259.567 203.5,259.5C 203.597,251.56 202.263,243.893 199.5,236.5 Z"/></g>
<g><path style="opacity:1" fill="#fa3e32" d="M 249.5,238.5 C 250.833,238.5 252.167,238.5 253.5,238.5C 252.445,245.647 253.945,251.98 258,257.5C 258.333,260.5 258.667,263.5 259,266.5C 262.217,269.38 265.05,272.547 267.5,276C 266.392,278.112 264.892,279.946 263,281.5C 259.667,278.167 256.333,274.833 253,271.5C 251.989,272.337 250.822,272.67 249.5,272.5C 249.5,271.5 249.5,270.5 249.5,269.5C 248.209,269.737 247.209,269.404 246.5,268.5C 253.777,269.721 256.944,266.721 256,259.5C 254.429,257.077 252.263,255.744 249.5,255.5C 249.5,249.833 249.5,244.167 249.5,238.5 Z"/></g>
<g><path style="opacity:1" fill="#f83b32" d="M 144.5,240.5 C 146.288,239.378 148.288,239.211 150.5,240C 142.113,253.265 141.28,267.099 148,281.5C 151.476,283.441 151.31,284.774 147.5,285.5C 142.896,284.064 139.73,281.064 138,276.5C 134.987,267.729 134.82,259.062 137.5,250.5C 137.263,254.273 137.763,257.94 139,261.5C 139.768,254.197 141.935,247.364 145.5,241C 145.272,240.601 144.938,240.435 144.5,240.5 Z"/></g>
<g><path style="opacity:1" fill="#f93c32" d="M 358.5,279.5 C 359.566,274.733 360.232,269.9 360.5,265C 359.291,253.701 358.458,253.868 358,265.5C 356.922,269.98 355.089,273.98 352.5,277.5C 357.603,264.37 356.269,252.037 348.5,240.5C 350.421,239.359 352.421,239.192 354.5,240C 362.037,247.632 364.87,256.799 363,267.5C 362.399,271.952 360.899,275.952 358.5,279.5 Z"/></g>
<g><path style="opacity:1" fill="#d09e05" d="M 34.5,284.5 C 34.6716,285.492 34.3382,286.158 33.5,286.5C 30.5471,276.689 28.5471,266.689 27.5,256.5C 28.1225,247.764 29.2892,239.097 31,230.5C 31.5235,237.343 31.3568,244.176 30.5,251C 31.7875,262.178 33.1209,273.345 34.5,284.5 Z"/></g>
<g><path style="opacity:1" fill="#af0317" d="M 144.5,240.5 C 144.938,240.435 145.272,240.601 145.5,241C 141.935,247.364 139.768,254.197 139,261.5C 137.763,257.94 137.263,254.273 137.5,250.5C 138.359,246.108 140.693,242.775 144.5,240.5 Z"/></g>
<g><path style="opacity:1" fill="#664d02" d="M 466.5,236.5 C 466.219,240.188 465.719,243.855 465,247.5C 464.502,244.518 464.335,241.518 464.5,238.5C 465.167,237.833 465.833,237.167 466.5,236.5 Z"/></g>
<g><path style="opacity:1" fill="#f83a32" d="M 227.5,237.5 C 217.966,254.398 218.299,271.064 228.5,287.5C 220.472,280.607 216.805,271.773 217.5,261C 217.161,251.521 220.494,243.688 227.5,237.5 Z"/></g>
<g><path style="opacity:1" fill="#957103" d="M 428.5,236.5 C 429.958,240.273 430.458,244.273 430,248.5C 428.646,244.637 428.146,240.637 428.5,236.5 Z"/></g>
<g><path style="opacity:1" fill="#efb506" d="M 474.5,296.5 C 473.566,295.432 473.232,294.099 473.5,292.5C 473.5,290.833 473.5,289.167 473.5,287.5C 475.799,281.469 476.632,275.136 476,268.5C 475.579,272.872 474.912,277.205 474,281.5C 473.502,278.518 473.335,275.518 473.5,272.5C 473.557,266.149 473.89,259.815 474.5,253.5C 475.323,256.977 475.823,260.644 476,264.5C 477.079,261.937 477.579,259.271 477.5,256.5C 476.812,251.623 477.979,247.29 481,243.5C 481.188,257.169 480.855,270.836 480,284.5C 477.112,287.991 475.278,291.991 474.5,296.5 Z"/></g>
<g><path style="opacity:1" fill="#060400" d="M 96.5,255.5 C 99.8621,255.07 102.695,256.07 105,258.5C 105.898,262.821 106.731,267.155 107.5,271.5C 107.55,274.574 106.217,276.741 103.5,278C 91.1667,280.333 78.8333,282.667 66.5,285C 60.0082,287.243 56.1749,285.076 55,278.5C 54.0023,274.527 53.6689,270.527 54,266.5C 60.2776,260.489 65.4443,261.322 69.5,269C 66.8832,269.822 64.2165,270.322 61.5,270.5C 61.9926,272.806 62.3259,275.139 62.5,277.5C 74.7904,274.922 87.1237,272.589 99.5,270.5C 99.6427,268.738 99.3094,267.071 98.5,265.5C 92.7735,265.592 88.7735,263.092 86.5,258C 90.0382,257.465 93.3716,256.632 96.5,255.5 Z"/></g>
<g><path style="opacity:1" fill="#fdbd08" d="M 249.5,255.5 C 252.263,255.744 254.429,257.077 256,259.5C 256.944,266.721 253.777,269.721 246.5,268.5C 242.171,265.35 241.504,261.516 244.5,257C 246.025,255.991 247.692,255.491 249.5,255.5 Z"/></g>
<g><path style="opacity:1" fill="#040300" d="M 396.5,255.5 C 411.578,257.902 426.578,260.735 441.5,264C 443.357,265.182 444.357,266.849 444.5,269C 443.538,273.476 442.705,277.976 442,282.5C 440.491,284.881 438.325,285.881 435.5,285.5C 421.008,283.359 406.674,280.526 392.5,277C 390.993,275.527 390.326,273.693 390.5,271.5C 390.953,267.827 391.453,264.16 392,260.5C 393.025,258.313 394.525,256.646 396.5,255.5 Z"/></g>
<g><path style="opacity:1" fill="#211905" d="M 456.5,256.5 C 457.167,256.833 457.833,257.167 458.5,257.5C 456.753,265.398 455.753,273.398 455.5,281.5C 454.095,283.225 453.595,285.225 454,287.5C 455.087,285.068 455.587,285.402 455.5,288.5C 453.167,294.5 450.833,300.5 448.5,306.5C 448.851,304.131 449.018,301.797 449,299.5C 447.333,303.167 445.667,306.833 444,310.5C 443.833,310 443.667,309.5 443.5,309C 449.649,291.905 453.982,274.405 456.5,256.5 Z"/></g>
<g><path style="opacity:1" fill="#684f03" d="M 477.5,256.5 C 477.579,259.271 477.079,261.937 476,264.5C 475.823,260.644 475.323,256.977 474.5,253.5C 474.298,251.011 474.798,248.677 476,246.5C 476.179,250.025 476.679,253.359 477.5,256.5 Z"/></g>
<g><path style="opacity:1" fill="#b20c18" d="M 358.5,279.5 C 356.61,283.942 353.277,285.442 348.5,284C 350.221,282.056 351.554,279.89 352.5,277.5C 355.089,273.98 356.922,269.98 358,265.5C 358.458,253.868 359.291,253.701 360.5,265C 360.232,269.9 359.566,274.733 358.5,279.5 Z"/></g>
<g><path style="opacity:1" fill="#ebb306" d="M 419.5,267.5 C 419.5,269.833 419.5,272.167 419.5,274.5C 412.826,273.443 406.159,272.276 399.5,271C 398.424,269.274 398.257,267.441 399,265.5C 399.893,264.919 400.893,264.585 402,264.5C 407.872,265.362 413.705,266.362 419.5,267.5 Z"/></g>
<g><path style="opacity:1" fill="#f4422e" d="M 247.5,238.5 C 247.666,243.511 247.499,248.511 247,253.5C 241.734,256.463 240.234,260.796 242.5,266.5C 239.066,270.258 235.732,273.925 232.5,277.5C 231.522,277.189 230.855,276.522 230.5,275.5C 233.15,272.349 235.984,269.349 239,266.5C 238.307,260.64 240.307,255.974 245,252.5C 244.886,247.394 245.72,242.727 247.5,238.5 Z"/></g>
<g><path style="opacity:1" fill="#604803" d="M 471.5,266.5 C 469.545,268.668 468.879,271.002 469.5,273.5C 468.853,272.726 468.52,271.726 468.5,270.5C 468.936,267.821 469.436,265.155 470,262.5C 470.21,264.058 470.71,265.391 471.5,266.5 Z"/></g>
<g><path style="opacity:1" fill="#b40c18" d="M 247.5,238.5 C 248.167,238.5 248.833,238.5 249.5,238.5C 249.5,244.167 249.5,249.833 249.5,255.5C 247.692,255.491 246.025,255.991 244.5,257C 241.504,261.516 242.171,265.35 246.5,268.5C 247.209,269.404 248.209,269.737 249.5,269.5C 249.5,270.5 249.5,271.5 249.5,272.5C 247.784,272.371 246.117,272.038 244.5,271.5C 243.153,270.972 241.819,270.805 240.5,271C 237.961,273.37 235.628,275.87 233.5,278.5C 232.833,278.5 232.5,278.167 232.5,277.5C 235.732,273.925 239.066,270.258 242.5,266.5C 240.234,260.796 241.734,256.463 247,253.5C 247.499,248.511 247.666,243.511 247.5,238.5 Z"/></g>
<g><path style="opacity:1" fill="#584203" d="M 419.5,267.5 C 420.791,267.263 421.791,267.596 422.5,268.5C 420.692,269.918 420.025,271.918 420.5,274.5C 420.167,274.5 419.833,274.5 419.5,274.5C 419.5,272.167 419.5,269.833 419.5,267.5 Z"/></g>
<g><path style="opacity:1" fill="#e8b006" d="M 422.5,268.5 C 427.167,269.167 431.833,269.833 436.5,270.5C 436.007,272.806 435.674,275.139 435.5,277.5C 430.304,276.861 425.304,275.861 420.5,274.5C 420.025,271.918 420.692,269.918 422.5,268.5 Z"/></g>
<g><path style="opacity:1" fill="#fa3734" d="M 244.5,271.5 C 241.849,274.652 239.015,277.652 236,280.5C 234.699,280.361 233.866,279.695 233.5,278.5C 235.628,275.87 237.961,273.37 240.5,271C 241.819,270.805 243.153,270.972 244.5,271.5 Z"/></g>
<g><path style="opacity:1" fill="#896804" d="M 459.5,274.5 C 458.769,279.438 457.435,284.105 455.5,288.5C 455.587,285.402 455.087,285.068 454,287.5C 453.595,285.225 454.095,283.225 455.5,281.5C 456.833,279.167 458.167,276.833 459.5,274.5 Z"/></g>
<g><path style="opacity:1" fill="#906e08" d="M 473.5,287.5 C 472.2,282.4 472.2,277.4 473.5,272.5C 473.335,275.518 473.502,278.518 474,281.5C 474.912,277.205 475.579,272.872 476,268.5C 476.632,275.136 475.799,281.469 473.5,287.5 Z"/></g>
<g><path style="opacity:1" fill="#947004" d="M 34.5,284.5 C 36.1841,289.948 37.0174,295.615 37,301.5C 35.6708,296.518 34.5042,291.518 33.5,286.5C 34.3382,286.158 34.6716,285.492 34.5,284.5 Z"/></g>
<g><path style="opacity:1" fill="#f73233" d="M 213.5,288.5 C 217.594,292.417 221.928,296.25 226.5,300C 230.677,302.45 235.01,304.616 239.5,306.5C 235.313,308.297 230.98,309.63 226.5,310.5C 226.66,308.801 226.494,307.134 226,305.5C 224.165,307.449 222.999,309.783 222.5,312.5C 212.816,307.115 209.816,299.115 213.5,288.5 Z"/></g>
<g><path style="opacity:1" fill="#f83d32" d="M 247.5,320.5 C 243.553,318.518 239.886,316.018 236.5,313C 243.824,312.086 250.824,310.086 257.5,307C 254.424,306.654 251.424,305.988 248.5,305C 251.128,303.374 253.461,301.374 255.5,299C 254.906,298.536 254.239,298.369 253.5,298.5C 260.051,297.645 265.885,294.978 271,290.5C 269.49,295.052 266.657,298.886 262.5,302C 265.486,301.872 268.486,301.872 271.5,302C 265.939,307.946 259.273,312.113 251.5,314.5C 255.111,317.138 259.111,318.971 263.5,320C 258.177,320.499 252.844,320.666 247.5,320.5 Z"/></g>
<g><path style="opacity:1" fill="#f83b31" d="M 198.5,293.5 C 202.333,300.676 207.333,307.01 213.5,312.5C 205.263,308.872 198.263,303.538 192.5,296.5C 194.518,295.491 196.518,294.491 198.5,293.5 Z"/></g>
<g><path style="opacity:1" fill="#8d6b04" d="M 473.5,292.5 C 473.232,294.099 473.566,295.432 474.5,296.5C 473.97,298.924 473.136,301.257 472,303.5C 471.813,299.647 472.313,295.98 473.5,292.5 Z"/></g>
<g><path style="opacity:1" fill="#c19204" d="M 455.5,288.5 C 453.586,298.169 450.752,307.502 447,316.5C 446.833,316 446.667,315.5 446.5,315C 447.687,312.276 448.353,309.443 448.5,306.5C 450.833,300.5 453.167,294.5 455.5,288.5 Z"/></g>
<g><path style="opacity:1" fill="#2c2206" d="M 447.5,318.5 C 446.635,318.436 445.635,318.103 444.5,317.5C 445.389,313.569 446.722,309.902 448.5,306.5C 448.353,309.443 447.687,312.276 446.5,315C 446.667,315.5 446.833,316 447,316.5C 450.752,307.502 453.586,298.169 455.5,288.5C 457.435,284.105 458.769,279.438 459.5,274.5C 461.095,269.548 462.595,264.548 464,259.5C 464.167,260.5 464.333,261.5 464.5,262.5C 459.955,279.92 455.122,297.254 450,314.5C 449.392,316.066 448.558,317.4 447.5,318.5 Z"/></g>
<g><path style="opacity:1" fill="#fffefc" d="M 89.5,327.5 C 88.2485,325.999 87.2485,324.332 86.5,322.5C 85.2743,311.893 89.941,307.06 100.5,308C 107.648,310.798 110.148,315.964 108,323.5C 103.139,330.979 96.972,332.312 89.5,327.5 Z"/></g>
<g><path style="opacity:1" fill="#fffefc" d="M 397.5,307.5 C 408.886,307.048 413.72,312.382 412,323.5C 408.867,329.327 404.034,331.493 397.5,330C 390.93,326.345 388.763,320.845 391,313.5C 393.063,311.266 395.229,309.266 397.5,307.5 Z"/></g>
<g><path style="opacity:1" fill="#ba8d04" d="M 469.5,292.5 C 470.097,292.735 470.43,293.235 470.5,294C 466.777,306.508 462.277,318.675 457,330.5C 460.837,317.821 465.004,305.154 469.5,292.5 Z"/></g>
<g><path style="opacity:1" fill="#120d01" d="M 444.5,317.5 C 445.635,318.103 446.635,318.436 447.5,318.5C 442.847,327.807 438.18,337.14 433.5,346.5C 432.68,348.14 431.847,349.807 431,351.5C 429.78,349.143 428.947,349.476 428.5,352.5C 425.939,354.64 423.605,356.973 421.5,359.5C 427.306,347.219 433.139,334.886 439,322.5C 440.049,323.517 441.216,323.684 442.5,323C 443.244,321.185 443.911,319.352 444.5,317.5 Z"/></g>
<g><path style="opacity:1" fill="#534007" d="M 179.5,330.5 C 177.236,327.208 176.07,323.541 176,319.5C 177.674,323.021 178.84,326.687 179.5,330.5 Z"/></g>
<g><path style="opacity:1" fill="#927217" d="M 86.5,322.5 C 87.2485,324.332 88.2485,325.999 89.5,327.5C 89.0582,328.231 88.8915,329.231 89,330.5C 86.4657,327.107 84.7991,323.441 84,319.5C 84.8518,320.571 85.6851,321.571 86.5,322.5 Z"/></g>
<g><path style="opacity:1" fill="#ecb306" d="M 483.5,316.5 C 484.097,316.735 484.43,317.235 484.5,318C 479.958,331.008 476.458,344.175 474,357.5C 475.333,356.167 476.667,354.833 478,353.5C 472.964,363.253 466.964,372.587 460,381.5C 451.5,390.667 443,399.833 434.5,409C 432.598,410.301 430.598,410.968 428.5,411C 437.042,402.626 445.375,394.126 453.5,385.5C 454.324,382.215 454.824,378.882 455,375.5C 466.098,356.637 475.598,336.97 483.5,316.5 Z"/></g>
<g><path style="opacity:1" fill="#e8b006" d="M 44.5,323.5 C 51.5585,333.932 58.3918,344.599 65,355.5C 77.8333,370.333 90.6667,385.167 103.5,400C 113.644,405.472 122.644,412.472 130.5,421C 135.672,424.085 140.672,427.419 145.5,431C 142.315,431.388 139.315,430.721 136.5,429C 129.672,424.085 122.672,419.419 115.5,415C 105.667,405.833 95.8333,396.667 86,387.5C 75.3333,373.5 64.6667,359.5 54,345.5C 50.5397,338.251 47.373,330.918 44.5,323.5 Z"/></g>
<g><path style="opacity:1" fill="#271e05" d="M 179.5,330.5 C 183.415,333.886 186.249,337.886 188,342.5C 183.902,339.272 181.069,335.272 179.5,330.5 Z"/></g>
<g><path style="opacity:1" fill="#0a0600" d="M 156.5,335.5 C 158.527,335.338 160.527,335.505 162.5,336C 166,338.833 169.5,341.667 173,344.5C 174.505,350.488 172.505,354.822 167,357.5C 164.459,356.993 161.959,356.326 159.5,355.5C 161.555,353.445 163.221,351.112 164.5,348.5C 163.5,346.833 162.167,345.5 160.5,344.5C 152.155,353.514 144.155,362.847 136.5,372.5C 137.5,374.167 138.833,375.5 140.5,376.5C 144.021,373.813 147.021,370.647 149.5,367C 148.376,366.751 147.376,366.251 146.5,365.5C 148.288,363.424 149.954,361.257 151.5,359C 155.798,359.729 160.131,360.729 164.5,362C 157,370.833 149.5,379.667 142,388.5C 137.667,384.833 133.333,381.167 129,377.5C 127.578,374.97 127.245,372.303 128,369.5C 137.335,358.001 146.835,346.668 156.5,335.5 Z"/></g>
<g><path style="opacity:1" fill="#0a0600" d="M 337.5,335.5 C 343.594,334.711 347.594,337.211 349.5,343C 348.519,345.62 347.353,348.12 346,350.5C 343.978,348.478 341.978,346.478 340,344.5C 337.435,345.378 336.101,347.044 336,349.5C 343.5,358.333 351,367.167 358.5,376C 361.793,375.702 363.293,373.869 363,370.5C 360.294,368.129 357.961,365.463 356,362.5C 355.085,363.328 354.419,364.328 354,365.5C 351.55,363.427 349.717,360.927 348.5,358C 349.861,354.111 351.361,350.278 353,346.5C 360.313,355.314 367.813,363.981 375.5,372.5C 371.063,376.892 366.396,381.058 361.5,385C 359.029,385.706 356.695,385.373 354.5,384C 344.975,373.109 335.808,361.943 327,350.5C 326.294,348.029 326.627,345.695 328,343.5C 331.358,340.969 334.524,338.302 337.5,335.5 Z"/></g>
<g><path style="opacity:1" fill="#604906" d="M 420.5,338.5 C 420.461,337.244 420.961,336.244 422,335.5C 422.585,336.998 422.085,337.998 420.5,338.5 Z"/></g>
<g><path style="opacity:1" fill="#916e06" d="M 453.5,338.5 C 452.867,338.12 452.2,337.787 451.5,337.5C 451.942,336.261 452.609,335.261 453.5,334.5C 454.363,333.537 455.03,333.537 455.5,334.5C 455.006,336.026 454.339,337.359 453.5,338.5 Z"/></g>
<g><path style="opacity:1" fill="#533f05" d="M 178.5,336.5 C 181.297,338.795 183.964,341.295 186.5,344C 182.798,342.804 180.131,340.304 178.5,336.5 Z"/></g>
<g><path style="opacity:1" fill="#3f3007" d="M 420.5,338.5 C 420.25,340.674 419.25,342.341 417.5,343.5C 417.75,341.326 418.75,339.659 420.5,338.5 Z"/></g>
<g><path style="opacity:1" fill="#493705" d="M 218.5,346.5 C 219.497,345.287 220.497,345.454 221.5,347C 220.423,347.47 219.423,347.303 218.5,346.5 Z"/></g>
<g><path style="opacity:1" fill="#292005" d="M 417.5,343.5 C 415.892,346.8 414.225,350.133 412.5,353.5C 411.998,354.521 411.332,354.688 410.5,354C 412.237,350.004 414.57,346.504 417.5,343.5 Z"/></g>
<g><path style="opacity:1" fill="#d6a305" d="M 437.5,347.5 C 436.66,349.853 435.326,351.853 433.5,353.5C 433.607,351.621 433.107,351.288 432,352.5C 430.878,354.407 430.045,356.407 429.5,358.5C 428.5,359.833 427.5,361.167 426.5,362.5C 426.196,361.85 425.863,361.183 425.5,360.5C 427.076,358.021 428.076,355.354 428.5,352.5C 428.947,349.476 429.78,349.143 431,351.5C 431.847,349.807 432.68,348.14 433.5,346.5C 434.117,346.611 434.617,346.944 435,347.5C 435.705,345.014 436.538,345.014 437.5,347.5 Z"/></g>
<g><path style="opacity:1" fill="#191202" d="M 428.5,363.5 C 428.557,362.391 428.89,361.391 429.5,360.5C 431.588,358.664 432.921,356.331 433.5,353.5C 435.326,351.853 436.66,349.853 437.5,347.5C 438.363,346.537 439.03,346.537 439.5,347.5C 437.633,354.17 433.966,359.503 428.5,363.5 Z"/></g>
<g><path style="opacity:1" fill="#372a09" d="M 50.5,354.5 C 53.0938,358.026 55.4271,361.692 57.5,365.5C 56.5,364.833 55.5,364.167 54.5,363.5C 51.8394,360.829 49.5061,357.829 47.5,354.5C 48.2334,353.913 49.2334,353.913 50.5,354.5 Z"/></g>
<g><path style="opacity:1" fill="#8a6905" d="M 433.5,353.5 C 432.921,356.331 431.588,358.664 429.5,360.5C 429.5,359.833 429.5,359.167 429.5,358.5C 430.045,356.407 430.878,354.407 432,352.5C 433.107,351.288 433.607,351.621 433.5,353.5 Z"/></g>
<g><path style="opacity:1" fill="#070400" d="M 203.5,361.5 C 204.512,362.872 205.512,364.205 206.5,365.5C 200.777,381.617 193.943,397.283 186,412.5C 183.594,411.435 181.427,410.102 179.5,408.5C 182.371,401.925 185.371,395.425 188.5,389C 185.773,388.182 183.106,388.348 180.5,389.5C 178.09,395.318 175.423,400.985 172.5,406.5C 170.004,405.42 167.67,404.086 165.5,402.5C 172,388.167 178.5,373.833 185,359.5C 186.47,357.848 188.303,356.848 190.5,356.5C 194.965,357.902 199.298,359.569 203.5,361.5 Z"/></g>
<g><path style="opacity:1" fill="#080500" d="M 306.5,356.5 C 309.862,356.07 312.695,357.07 315,359.5C 321.597,373.791 328.097,388.125 334.5,402.5C 332.417,403.959 330.25,405.292 328,406.5C 321.576,393.317 315.41,379.984 309.5,366.5C 306.884,365.614 304.551,366.28 302.5,368.5C 308.894,381.457 314.894,394.624 320.5,408C 320.355,408.772 320.022,409.439 319.5,410C 317.649,410.837 315.816,411.671 314,412.5C 306.647,396.785 299.481,380.952 292.5,365C 292.645,364.228 292.978,363.561 293.5,363C 295.351,362.163 297.184,361.329 299,360.5C 300.389,364.272 301.389,364.272 302,360.5C 303.397,358.93 304.897,357.596 306.5,356.5 Z"/></g>
<g><path style="opacity:1" fill="#191302" d="M 416.5,362.5 C 413.267,366.238 409.767,369.905 406,373.5C 405.487,372.473 404.987,371.473 404.5,370.5C 409.131,366.37 413.631,362.037 418,357.5C 417.866,359.189 417.366,360.856 416.5,362.5 Z"/></g>
<g><path style="opacity:1" fill="#8c6a03" d="M 206.5,365.5 C 205.512,364.205 204.512,362.872 203.5,361.5C 204.189,360.226 205.023,360.226 206,361.5C 207.334,362.878 207.501,364.211 206.5,365.5 Z"/></g>
<g><path style="opacity:1" fill="#231a03" d="M 421.5,359.5 C 420.925,361.411 419.925,363.078 418.5,364.5C 417.508,364.672 416.842,364.338 416.5,363.5C 418.167,362.167 419.833,360.833 421.5,359.5 Z"/></g>
<g><path style="opacity:1" fill="#463505" d="M 429.5,358.5 C 429.5,359.167 429.5,359.833 429.5,360.5C 428.89,361.391 428.557,362.391 428.5,363.5C 424.409,370.232 423.743,369.898 426.5,362.5C 427.5,361.167 428.5,359.833 429.5,358.5 Z"/></g>
<g><path style="opacity:1" fill="#e7af06" d="M 191.5,365.5 C 193.936,365.749 195.936,366.749 197.5,368.5C 195.64,372.083 193.973,375.749 192.5,379.5C 189.894,380.652 187.227,380.818 184.5,380C 186.739,375.111 189.073,370.278 191.5,365.5 Z"/></g>
<g><path style="opacity:1" fill="#291f03" d="M 57.5,365.5 C 59.2624,366.262 60.2624,367.596 60.5,369.5C 58.7376,368.738 57.7376,367.404 57.5,365.5 Z"/></g>
<g><path style="opacity:1" fill="#050300" d="M 287.5,417.5 C 287.423,418.75 286.756,419.583 285.5,420C 283.527,420.495 281.527,420.662 279.5,420.5C 276.5,403.167 273.5,385.833 270.5,368.5C 273.167,368.167 275.833,367.833 278.5,367.5C 280.986,384.264 283.986,400.931 287.5,417.5 Z"/></g>
<g><path style="opacity:1" fill="#231b04" d="M 418.5,366.5 C 417.889,368.775 416.555,370.441 414.5,371.5C 414.04,368.905 415.374,367.238 418.5,366.5 Z"/></g>
<g><path style="opacity:1" fill="#080500" d="M 222.5,368.5 C 226.534,368.672 230.534,369.172 234.5,370C 236.337,373.645 238.337,373.978 240.5,371C 244.167,370.333 247.833,370.333 251.5,371C 254.934,372.529 256.6,375.196 256.5,379C 254.737,394.134 253.403,409.3 252.5,424.5C 249.833,424.5 247.167,424.5 244.5,424.5C 245.274,409.106 246.607,393.773 248.5,378.5C 246.167,378.5 243.833,378.5 241.5,378.5C 240.025,393.481 238.692,408.481 237.5,423.5C 234.833,423.5 232.167,423.5 229.5,423.5C 230.274,408.11 231.607,392.776 233.5,377.5C 231.167,377.5 228.833,377.5 226.5,377.5C 224.867,392.135 223.533,406.802 222.5,421.5C 219.833,421.5 217.167,421.5 214.5,421.5C 215.669,405.141 217.169,388.807 219,372.5C 220.376,371.295 221.542,369.962 222.5,368.5 Z"/></g>
<g><path style="opacity:1" fill="#362905" d="M 60.5,369.5 C 62.2624,370.262 63.2624,371.596 63.5,373.5C 61.7376,372.738 60.7376,371.404 60.5,369.5 Z"/></g>
<g><path style="opacity:1" fill="#dea805" d="M 416.5,362.5 C 416.5,362.833 416.5,363.167 416.5,363.5C 416.842,364.338 417.508,364.672 418.5,364.5C 418.5,365.167 418.5,365.833 418.5,366.5C 415.374,367.238 414.04,368.905 414.5,371.5C 412.167,373.167 410.167,375.167 408.5,377.5C 408.565,377.062 408.399,376.728 408,376.5C 405.873,378.114 404.373,380.114 403.5,382.5C 401.37,384.127 399.37,385.96 397.5,388C 396.833,388.667 396.167,388.667 395.5,388C 397.167,386.333 398.833,384.667 400.5,383C 397.735,383.72 395.401,385.387 393.5,388C 391.945,389.289 390.279,389.956 388.5,390C 394.054,384.949 399.054,379.449 403.5,373.5C 403.376,372.893 403.043,372.56 402.5,372.5C 402.833,371.5 403.5,370.833 404.5,370.5C 404.987,371.473 405.487,372.473 406,373.5C 409.767,369.905 413.267,366.238 416.5,362.5 Z"/></g>
<g><path style="opacity:1" fill="#6c5206" d="M 63.5,373.5 C 64.6348,374.103 65.6348,374.436 66.5,374.5C 67.7454,377.987 69.7454,380.987 72.5,383.5C 72.2252,385.842 71.3919,385.842 70,383.5C 67.5633,380.28 65.3967,376.947 63.5,373.5 Z"/></g>
<g><path style="opacity:1" fill="#4c3a08" d="M 408.5,377.5 C 407.167,379.5 405.5,381.167 403.5,382.5C 404.373,380.114 405.873,378.114 408,376.5C 408.399,376.728 408.565,377.062 408.5,377.5 Z"/></g>
<g><path style="opacity:1" fill="#6e5403" d="M 71.5,378.5 C 74.8333,381.167 77.8333,384.167 80.5,387.5C 80.1667,387.5 79.8333,387.5 79.5,387.5C 76.0969,385.1 73.4302,382.1 71.5,378.5 Z"/></g>
<g><path style="opacity:1" fill="#7f6004" d="M 467.5,384.5 C 467.685,382.804 468.519,381.471 470,380.5C 470.279,382.412 469.446,383.746 467.5,384.5 Z"/></g>
<g><path style="opacity:1" fill="#906d03" d="M 467.5,384.5 C 467.573,386.027 466.906,387.027 465.5,387.5C 465.427,385.973 466.094,384.973 467.5,384.5 Z"/></g>
<g><path style="opacity:1" fill="#1d1603" d="M 402.5,372.5 C 403.043,372.56 403.376,372.893 403.5,373.5C 399.054,379.449 394.054,384.949 388.5,390C 390.279,389.956 391.945,389.289 393.5,388C 395.401,385.387 397.735,383.72 400.5,383C 398.833,384.667 397.167,386.333 395.5,388C 396.167,388.667 396.833,388.667 397.5,388C 399.37,385.96 401.37,384.127 403.5,382.5C 400.173,389.513 395.173,394.18 388.5,396.5C 389.313,395.186 390.313,394.019 391.5,393C 391.167,392.833 390.833,392.667 390.5,392.5C 385.615,396.102 380.615,399.435 375.5,402.5C 378.722,398.878 382.388,395.712 386.5,393C 383.449,393.29 380.449,394.123 377.5,395.5C 376.893,395.376 376.56,395.043 376.5,394.5C 385.909,388.117 394.575,380.783 402.5,372.5 Z"/></g>
<g><path style="opacity:1" fill="#e2ab06" d="M 54.5,363.5 C 55.5,364.167 56.5,364.833 57.5,365.5C 57.7376,367.404 58.7376,368.738 60.5,369.5C 60.7376,371.404 61.7376,372.738 63.5,373.5C 65.3967,376.947 67.5633,380.28 70,383.5C 71.3919,385.842 72.2252,385.842 72.5,383.5C 83.6611,393.828 94.3277,404.661 104.5,416C 113.528,421.844 122.528,427.677 131.5,433.5C 138.285,437.779 144.952,442.279 151.5,447C 168.497,452.943 185.497,458.776 202.5,464.5C 202.5,465.167 202.167,465.5 201.5,465.5C 192.824,463.443 184.157,461.276 175.5,459C 163.249,453.472 150.916,448.139 138.5,443C 125.108,433.276 111.441,423.942 97.5,415C 86.6667,403.5 75.8333,392 65,380.5C 61.2482,374.931 57.7482,369.264 54.5,363.5 Z"/></g>
<g><path style="opacity:1" fill="#221a03" d="M 66.5,374.5 C 68.1667,375.833 69.8333,377.167 71.5,378.5C 73.4302,382.1 76.0969,385.1 79.5,387.5C 87.2754,395.539 94.9421,403.706 102.5,412C 106.402,414.751 110.402,417.251 114.5,419.5C 114.973,420.906 115.973,421.573 117.5,421.5C 117.973,422.906 118.973,423.573 120.5,423.5C 125.118,425.815 129.451,428.648 133.5,432C 132.584,432.278 131.918,432.778 131.5,433.5C 122.528,427.677 113.528,421.844 104.5,416C 94.3277,404.661 83.6611,393.828 72.5,383.5C 69.7454,380.987 67.7454,377.987 66.5,374.5 Z"/></g>
<g><path style="opacity:1" fill="#e0aa05" d="M 69.5,391.5 C 75.1031,397.605 80.9364,403.605 87,409.5C 88.2893,411.055 88.956,412.721 89,414.5C 83,409.167 77,403.833 71,398.5C 70.338,396.187 69.838,393.854 69.5,391.5 Z"/></g>
<g><path style="opacity:1" fill="#d5a205" d="M 375.5,402.5 C 369.282,405.442 362.949,408.109 356.5,410.5C 362.854,404.817 369.52,399.484 376.5,394.5C 376.56,395.043 376.893,395.376 377.5,395.5C 380.449,394.123 383.449,393.29 386.5,393C 382.388,395.712 378.722,398.878 375.5,402.5 Z"/></g>
<g><path style="opacity:1" fill="#d29f06" d="M 465.5,387.5 C 462.916,391.933 460.082,396.266 457,400.5C 448.531,407.967 440.031,415.3 431.5,422.5C 442.134,410.198 453.468,398.532 465.5,387.5 Z"/></g>
<g><path style="opacity:1" fill="#453405" d="M 417.5,392.5 C 415.167,395.5 412.5,398.167 409.5,400.5C 409.5,400.167 409.5,399.833 409.5,399.5C 411.569,396.427 414.236,394.094 417.5,392.5 Z"/></g>
<g><path style="opacity:1" fill="#d7a305" d="M 79.5,387.5 C 79.8333,387.5 80.1667,387.5 80.5,387.5C 91.5577,398.561 102.891,409.227 114.5,419.5C 110.402,417.251 106.402,414.751 102.5,412C 94.9421,403.706 87.2754,395.539 79.5,387.5 Z"/></g>
<g><path style="opacity:1" fill="#171002" d="M 409.5,399.5 C 409.5,399.833 409.5,400.167 409.5,400.5C 404.669,405.163 399.669,409.663 394.5,414C 391.779,414.568 389.112,414.901 386.5,415C 393.879,409.318 401.545,404.151 409.5,399.5 Z"/></g>
<g><path style="opacity:1" fill="#1b1403" d="M 375.5,402.5 C 367.934,409.907 358.934,414.407 348.5,416C 351.047,413.946 353.714,412.113 356.5,410.5C 362.949,408.109 369.282,405.442 375.5,402.5 Z"/></g>
<g><path style="opacity:1" fill="#201803" d="M 148.5,411.5 C 151.167,413.5 153.833,415.5 156.5,417.5C 147.615,414.112 139.615,409.278 132.5,403C 132.833,402.833 133.167,402.667 133.5,402.5C 138.273,405.952 143.273,408.952 148.5,411.5 Z"/></g>
<g><path style="opacity:1" fill="#937004" d="M 346.5,407.5 C 348.379,407.393 348.712,407.893 347.5,409C 344.702,410.914 341.702,411.914 338.5,412C 341.391,410.726 344.058,409.226 346.5,407.5 Z"/></g>
<g><path style="opacity:1" fill="#936f06" d="M 416.5,404.5 C 412.466,408.536 408.132,412.202 403.5,415.5C 405.833,412.833 408.167,410.167 410.5,407.5C 411.751,404.511 413.751,403.511 416.5,404.5 Z"/></g>
<g><path style="opacity:1" fill="#2b2106" d="M 301.5,413.5 C 303.696,413.565 305.696,414.232 307.5,415.5C 304.216,416.657 300.882,416.824 297.5,416C 298.858,415.066 300.192,414.232 301.5,413.5 Z"/></g>
<g><path style="opacity:1" fill="#2a2005" d="M 174.5,421.5 C 172.323,421.414 170.323,420.747 168.5,419.5C 165.113,419.988 162.113,418.988 159.5,416.5C 160.93,416.421 162.264,416.754 163.5,417.5C 163.5,416.5 163.5,415.5 163.5,414.5C 167.401,416.608 171.067,418.941 174.5,421.5 Z"/></g>
<g><path style="opacity:1" fill="#957103" d="M 114.5,419.5 C 116.027,419.427 117.027,420.094 117.5,421.5C 115.973,421.573 114.973,420.906 114.5,419.5 Z"/></g>
<g><path style="opacity:1" fill="#5f4806" d="M 403.5,415.5 C 401.472,418.719 398.805,420.886 395.5,422C 397.771,419.218 400.437,417.051 403.5,415.5 Z"/></g>
<g><path style="opacity:1" fill="#8b6903" d="M 287.5,417.5 C 288.345,418.671 289.011,420.005 289.5,421.5C 286.061,421.253 282.728,421.586 279.5,422.5C 279.5,421.833 279.5,421.167 279.5,420.5C 281.527,420.662 283.527,420.495 285.5,420C 286.756,419.583 287.423,418.75 287.5,417.5 Z"/></g>
<g><path style="opacity:1" fill="#856503" d="M 117.5,421.5 C 119.027,421.427 120.027,422.094 120.5,423.5C 118.973,423.573 117.973,422.906 117.5,421.5 Z"/></g>
<g><path style="opacity:1" fill="#060400" d="M 289.5,421.5 C 289.506,422.417 288.506,422.917 286.5,423C 281.712,424.01 279.379,423.843 279.5,422.5C 282.728,421.586 286.061,421.253 289.5,421.5 Z"/></g>
<g><path style="opacity:1" fill="#1c1503" d="M 318.5,420.5 C 323.592,420.497 323.592,421.33 318.5,423C 315.833,423.667 313.167,423.667 310.5,423C 313.522,422.902 316.189,422.068 318.5,420.5 Z"/></g>
<g><path style="opacity:1" fill="#6e5307" d="M 166.5,423.5 C 167.946,422.387 169.613,422.22 171.5,423C 172.338,424.155 173.338,425.322 174.5,426.5C 171.86,425.552 169.193,424.552 166.5,423.5 Z"/></g>
<g><path style="opacity:1" fill="#d09e06" d="M 148.5,411.5 C 152.593,412.382 156.26,414.049 159.5,416.5C 162.113,418.988 165.113,419.988 168.5,419.5C 170.323,420.747 172.323,421.414 174.5,421.5C 178.87,422.098 182.37,424.098 185,427.5C 185.414,427.043 185.914,426.709 186.5,426.5C 189.358,427.661 192.025,428.994 194.5,430.5C 194.167,431.167 193.833,431.833 193.5,432.5C 192.039,433.686 190.705,433.686 189.5,432.5C 185.466,430.263 181.132,428.596 176.5,427.5C 175.508,427.672 174.842,427.338 174.5,426.5C 173.338,425.322 172.338,424.155 171.5,423C 169.613,422.22 167.946,422.387 166.5,423.5C 162.882,421.863 159.549,419.863 156.5,417.5C 153.833,415.5 151.167,413.5 148.5,411.5 Z"/></g>
<g><path style="opacity:1" fill="#564103" d="M 431.5,422.5 C 430.207,424.296 428.707,425.963 427,427.5C 427.177,424.814 428.677,423.148 431.5,422.5 Z"/></g>
<g><path style="opacity:1" fill="#251c03" d="M 176.5,427.5 C 181.132,428.596 185.466,430.263 189.5,432.5C 184.588,432.206 180.255,430.539 176.5,427.5 Z"/></g>
<g><path style="opacity:1" fill="#0f0a00" d="M 197.5,431.5 C 200.112,432.371 202.779,433.037 205.5,433.5C 205.158,434.338 204.492,434.672 203.5,434.5C 202.5,434.5 201.5,434.5 200.5,434.5C 198.978,434.337 197.311,433.504 195.5,432C 196.094,431.536 196.761,431.369 197.5,431.5 Z"/></g>
<g><path style="opacity:1" fill="#1d1603" d="M 356.5,430.5 C 357.552,430.351 358.552,430.517 359.5,431C 353.39,433.221 347.723,436.221 342.5,440C 337.454,440.814 332.454,441.48 327.5,442C 328.833,441 330.167,440 331.5,439C 340.266,436.907 348.599,434.073 356.5,430.5 Z"/></g>
<g><path style="opacity:1" fill="#816204" d="M 194.5,430.5 C 195.791,430.263 196.791,430.596 197.5,431.5C 196.761,431.369 196.094,431.536 195.5,432C 197.311,433.504 198.978,434.337 200.5,434.5C 201.6,435.558 202.934,436.392 204.5,437C 204,437.167 203.5,437.333 203,437.5C 199.519,436.179 196.352,434.512 193.5,432.5C 193.833,431.833 194.167,431.167 194.5,430.5 Z"/></g>
<g><path style="opacity:1" fill="#654d05" d="M 205.5,433.5 C 206.922,433.709 208.255,434.209 209.5,435C 207.288,435.789 205.288,435.622 203.5,434.5C 204.492,434.672 205.158,434.338 205.5,433.5 Z"/></g>
<g><path style="opacity:1" fill="#392b05" d="M 245.5,437.5 C 245.833,438.167 246.167,438.833 246.5,439.5C 240.423,439.804 234.423,439.304 228.5,438C 234.157,437.501 239.824,437.334 245.5,437.5 Z"/></g>
<g><path style="opacity:1" fill="#cc9b05" d="M 418.5,432.5 C 419.239,432.369 419.906,432.536 420.5,433C 417.203,435.295 414.203,437.962 411.5,441C 401.874,445.75 392.207,450.084 382.5,454C 394.729,447.059 406.729,439.892 418.5,432.5 Z"/></g>
<g><path style="opacity:1" fill="#a77f04" d="M 245.5,437.5 C 250.179,437.334 254.845,437.501 259.5,438C 255.3,439.367 250.967,439.867 246.5,439.5C 246.167,438.833 245.833,438.167 245.5,437.5 Z"/></g>
<g><path style="opacity:1" fill="#594404" d="M 378.5,440.5 C 379.552,440.351 380.552,440.517 381.5,441C 379.35,442.59 377.017,443.257 374.5,443C 376.066,442.392 377.4,441.558 378.5,440.5 Z"/></g>
<g><path style="opacity:1" fill="#100b01" d="M 215.5,442.5 C 215.735,441.903 216.235,441.57 217,441.5C 238.034,446.307 259.201,450.474 280.5,454C 276.594,455.434 272.594,455.767 268.5,455C 250.543,451.778 232.876,447.611 215.5,442.5 Z"/></g>
<g><path style="opacity:1" fill="#584304" d="M 369.5,444.5 C 371.347,444.234 372.014,444.568 371.5,445.5C 369.265,446.752 366.931,447.252 364.5,447C 366.315,446.243 367.981,445.41 369.5,444.5 Z"/></g>
<g><path style="opacity:1" fill="#d9a405" d="M 190.5,452.5 C 207.65,456.764 224.65,461.598 241.5,467C 240.07,468.44 238.403,468.774 236.5,468C 221.833,463.667 207.167,459.333 192.5,455C 191.244,454.583 190.577,453.75 190.5,452.5 Z"/></g>
<g><path style="opacity:1" fill="#d7a305" d="M 357.5,448.5 C 360.598,448.413 360.932,448.913 358.5,450C 350.087,453.138 341.754,456.471 333.5,460C 335.5,460.333 337.5,460.667 339.5,461C 327.625,462.554 315.792,464.387 304,466.5C 303.167,466.167 302.333,465.833 301.5,465.5C 320.258,459.815 338.925,454.149 357.5,448.5 Z"/></g>
<g><path style="opacity:1" fill="#a17a04" d="M 202.5,464.5 C 211.852,466.937 221.185,469.437 230.5,472C 220.479,471.153 210.812,468.987 201.5,465.5C 202.167,465.5 202.5,465.167 202.5,464.5 Z"/></g>
<g><path style="opacity:1" fill="#ac8205" d="M 314.5,478.5 C 313.081,477.549 311.415,477.216 309.5,477.5C 322.45,474.982 335.45,473.316 348.5,472.5C 337.293,474.924 325.959,476.924 314.5,478.5 Z"/></g>
<g><path style="opacity:1" fill="#d7a406" d="M 309.5,477.5 C 311.415,477.216 313.081,477.549 314.5,478.5C 303.311,480.967 291.978,481.967 280.5,481.5C 279.508,481.672 278.842,481.338 278.5,480.5C 288.841,479.61 299.175,478.61 309.5,477.5 Z"/></g>
<g><path style="opacity:1" fill="#6b5103" d="M 278.5,480.5 C 278.842,481.338 279.508,481.672 280.5,481.5C 268.674,482.66 256.674,482.826 244.5,482C 255.831,481.367 267.164,480.867 278.5,480.5 Z"/></g>
<g><path style="opacity:1" fill="#423203" d="M 218.5,486.5 C 217.508,486.328 216.842,486.662 216.5,487.5C 209.195,486.289 201.862,485.123 194.5,484C 202.684,484.15 210.684,484.983 218.5,486.5 Z"/></g>
<g><path style="opacity:1" fill="#c69605" d="M 289.5,488.5 C 287.265,488.795 285.265,488.461 283.5,487.5C 295.475,486.069 307.475,485.235 319.5,485C 309.749,488.102 299.749,489.269 289.5,488.5 Z"/></g>
<g><path style="opacity:1" fill="#9c7704" d="M 216.5,487.5 C 216.842,486.662 217.508,486.328 218.5,486.5C 223.032,486.182 227.366,486.515 231.5,487.5C 229.265,487.205 227.265,487.539 225.5,488.5C 222.518,488.037 219.518,487.704 216.5,487.5 Z"/></g>
<g><path style="opacity:1" fill="#d6a205" d="M 225.5,488.5 C 227.265,487.539 229.265,487.205 231.5,487.5C 238.854,487.479 246.187,487.813 253.5,488.5C 251.5,489.167 249.5,489.833 247.5,490.5C 240.075,490.698 232.742,490.032 225.5,488.5 Z"/></g>
<g><path style="opacity:1" fill="#6b5103" d="M 283.5,487.5 C 285.265,488.461 287.265,488.795 289.5,488.5C 283.013,489.654 276.346,489.821 269.5,489C 274.184,488.565 278.851,488.065 283.5,487.5 Z"/></g>
<g><path style="opacity:1" fill="#6a5003" d="M 253.5,488.5 C 256.187,488.336 258.854,488.503 261.5,489C 256.964,490.379 252.297,490.879 247.5,490.5C 249.5,489.833 251.5,489.167 253.5,488.5 Z"/></g>
</svg>
